/* XPM */
static char *result[] = {
/* columns rows colors chars-per-pixel */
"64 64 222 2 ",
"   c #39211E",
".  c #36211F",
"X  c #3A2522",
"o  c #3C2B25",
"O  c #3D2D29",
"+  c #352321",
"@  c #3E332C",
"#  c #3D3431",
"$  c #3C393B",
"%  c #371E1B",
"&  c #5B3413",
"*  c #583916",
"=  c #5A2F0F",
"-  c #42332C",
";  c #46352D",
":  c #56372E",
">  c #433C32",
",  c #4B3B31",
"<  c #523D32",
"1  c #543530",
"2  c #492C27",
"3  c #5C401B",
"4  c #5E4A23",
"5  c #454334",
"6  c #4A4436",
"7  c #4B433A",
"8  c #474B39",
"9  c #494D3A",
"0  c #494B37",
"q  c #544235",
"w  c #594436",
"e  c #524539",
"r  c #5A4638",
"t  c #5C4C3C",
"y  c #544A3C",
"u  c #4A513C",
"i  c #4D5E3F",
"p  c #5F5027",
"a  c #64522A",
"s  c #644B3B",
"d  c #626435",
"f  c #3D454B",
"g  c #494741",
"h  c #4B5A41",
"j  c #525344",
"k  c #5A5245",
"l  c #565945",
"z  c #425256",
"x  c #435559",
"c  c #455A5C",
"v  c #4B5A5B",
"b  c #495857",
"n  c #584F46",
"m  c #6E5949",
"M  c #735946",
"N  c #4E6143",
"B  c #586648",
"V  c #56734C",
"C  c #58784F",
"Z  c #5B6B51",
"A  c #57655D",
"S  c #597D54",
"D  c #587355",
"F  c #61674A",
"G  c #607159",
"H  c #627C5A",
"J  c #6D6C4D",
"K  c #445F66",
"L  c #486765",
"P  c #576866",
"I  c #4F796C",
"U  c #4D776A",
"Y  c #587C6E",
"T  c #466B74",
"R  c #4A6C74",
"E  c #516E71",
"W  c #49737A",
"Q  c #53767A",
"!  c #567777",
"~  c #706963",
"^  c #68766A",
"/  c #7E7371",
"(  c #687C77",
")  c #961D1B",
"_  c #852519",
"`  c #97231F",
"'  c #BC3E3F",
"]  c #9E312B",
"[  c #DF0124",
"{  c #D90A28",
"}  c #D6102B",
"|  c #D11A2F",
" . c #CF1D31",
".. c #E10022",
"X. c #C62D38",
"o. c #BD3F40",
"O. c #AB594B",
"+. c #B15248",
"@. c #8F725C",
"#. c #96745B",
"$. c #866D57",
"%. c #A36D54",
"&. c #A56952",
"*. c #917A64",
"=. c #857878",
"-. c #8E5A40",
";. c #598356",
":. c #5B8558",
">. c #5D8A5B",
",. c #5F915F",
"<. c #67854D",
"1. c #638D5A",
"2. c #62955F",
"3. c #7A8252",
"4. c #598677",
"5. c #5C9B7D",
"6. c #58846E",
"7. c #649C62",
"8. c #689B68",
"9. c #739B6A",
"0. c #689974",
"q. c #769875",
"w. c #74867B",
"e. c #6CA766",
"r. c #67A469",
"t. c #69A66B",
"y. c #6AAB6D",
"u. c #68A366",
"i. c #6DB36E",
"p. c #6DA970",
"a. c #7DAF71",
"s. c #7BAB7C",
"d. c #7BA47B",
"f. c #6DB372",
"g. c #6EBC75",
"h. c #71BD76",
"j. c #74BD7A",
"k. c #78B777",
"l. c #70B46F",
"z. c #6FC276",
"x. c #6ECA7D",
"c. c #72C37A",
"v. c #74C97D",
"b. c #74C679",
"n. c #95855F",
"m. c #918B61",
"M. c #829A7F",
"N. c #85A16B",
"B. c #80AA6F",
"V. c #84A47A",
"C. c #497A86",
"Z. c #547C84",
"A. c #5D9F81",
"S. c #4B8895",
"D. c #578D95",
"F. c #678485",
"G. c #739387",
"H. c #5FA383",
"J. c #62AC87",
"K. c #66B78E",
"L. c #68B88D",
"P. c #76B984",
"I. c #6ABC92",
"U. c #7DAE90",
"Y. c #4D96A7",
"T. c #589CAA",
"R. c #519EB1",
"E. c #4D9EB3",
"W. c #609BA7",
"Q. c #4FA3B7",
"!. c #4FA4B8",
"~. c #4FA9BE",
"^. c #52A3B6",
"/. c #50A5B8",
"(. c #52AABC",
"). c #5DB0B1",
"_. c #61B5B9",
"`. c #66BAB9",
"'. c #73BCA6",
"]. c #6FCF81",
"[. c #7BC582",
"{. c #7BC983",
"}. c #79CD83",
"|. c #7ED088",
" X c #69C092",
".X c #78C09F",
"XX c #6BD080",
"oX c #75C5B2",
"OX c #4FADC4",
"+X c #8F8F88",
"@X c #86B787",
"#X c #89B390",
"$X c #A6A8A1",
"%X c #B7B6B3",
"&X c #C3BDBF",
"*X c #83CD8B",
"=X c #88C98F",
"-X c #84C688",
";X c #8BC790",
":X c #8BCA92",
">X c #91CB97",
",X c #94CB99",
"<X c #94D19C",
"1X c #93D799",
"2X c #8BCD92",
"3X c #84DABE",
"4X c #8ED2A4",
"5X c #A6D3AB",
"6X c #A0D7A7",
"7X c #B3C3B3",
"8X c #B9D6BC",
"9X c #8FE4BF",
"0X c #91E6BE",
"qX c #93E9BF",
"wX c #BED9C1",
"eX c #91E8C1",
"rX c #CFD8D0",
"tX c #D3DCD4",
"yX c #C7D8C8",
"uX c #DBE3DD",
"iX c #C9E0CD",
"pX c #EEE9EE",
/* pixels */
"!.Q.!.!.!.Q.Q.Q.!.Q./.^.Q.!.Q.Q./././.^.^.Q.Q.!./.!.Q.Q.Q.Q.Q.Q.Q.Q.Q.!.Q.Q.Q.Q.!.Q.Q.Q.Q.Q.!.!.!.Q.Q.Q.Q.Q.Q.Q.Q.Q.!.!.!.!.!.!.",
"!.!./.Y.c x z I K.K.Y A Q R.E b I I.'.'.).Q./.R.D.R z K H.4.z L Y.W z L K.L C.~.Y.K z 4.H.c c S.S.P c H. XA.c x z C.!.!.!.!.!.!.",
"!.!.~.S.@ X   i z.z.F : n ! k 2 N v.1X1XA.R F.( P g X - r.V X - R g + u i.5 f W E O + C u.o . v P < o 7.v.7.O X   b R.(.!.~.!.!.",
"_.(.^.F.e < 6 H :X:XF < w w < 6 S h.s.s.F 1 m m s ; o @ r.D X O q ; o 9 f.Z j j q u 9 >.t.l j e < q u y.|.8.- 8 0 b Q S.S.S.Y.!.",
"9X_.F.@.@.@.9.>XtXrX~ 6 w w > >.c.f.g 7 7 r r r , - @ 5 t.S - , w > @ h h.:X<Xq.9 y.h.c.[.,X,XD @ u f.,X6X@X> t.c.:.> # # @ c Q.",
"9Xw.k s e V.[.[.=X:X7X=.O > 2.h.v.P.%X&X=.O - @ S y.r.y.g.P.P.d.6 S y.y.c.[.{.j.y.c.c.c.c.{.{.f.r.t.v.8XtX$X5 y.v.P.9.- @ o x Q.",
"0XS - 7 :.j.{.c.z.c.iX+X. # y.v.c.=XuXpX+X% 2 o 1.}.v.c.c.*X1X@X5 ,.}.c.c.c.c.c.c.c.c.c.c.c.c.c.v.c.c.yXpX%X; t.c.*X=X:.>   x Q.",
"oXA X u c.{.c.c.c.c.6X+XN B i.c.h.[.8XwXq.h N N r.c.c.c.c.[.:X[.V r.c.c.c.c.c.c.c.j.c.c.c.c.c.c.c.z.c.5XyX#XZ f.c.[.:X<XS i U Q.",
"Q.x X 9 t.y.g.c.c.c.c.c.c.c.c.c.c.c.c.c.c.c.c.c.c.c.c.c.h.c.c.c.c.c.c.c.c.c.c.c.c.c.c.c.c.c.c.c.c.c.c.c.c.c.c.c.c.c.=XtX:Xz.K.Q.",
"Q.x @ - 5 5 1.v.c.c.c.c.c.c.c.c.c.c.c.c.c.c.c.h.c.c.c.c.c.c.c.c.c.c.c.c.c.c.c.c.c.c.c.c.c.c.c.c.c.c.c.c.c.c.c.c.c.z.=XyX;Xz.K.Q.",
"Q.5.7.8.d.$X#Xc.c.c.c.c.c.c.c.c.c.c.c.c.c.c.c.c.c.c.c.c.c.c.c.c.c.c.c.j.c.c.c.c.c.c.c.c.c.c.c.c.c.c.c.c.c.c.c.c.c.c.f.~ F F 6.^.",
"Q. Xv.|.6XuX5Xz.c.c.c.c.c.c.c.c.c.c.c.c.c.c.c.c.c.c.c.c.c.c.c.c.c.c.c.c.c.c.c.c.c.h.c.c.c.c.c.c.c.c.c.c.c.c.c.c.c.v.t., < : A Q.",
"!.H.7.y.,X8X,Xc.c.c.c.c.c.h.c.c.c.h.c.c.c.c.c.c.c.c.c.c.c.c.c.c.c.c.c.c.c.c.c.c.c.c.c.c.c.c.c.c.c.c.c.c.c.c.c.c.c.v.y.t r n Q ^.",
"Q.c - u f.c.c.c.c.c.c.c.c.c.c.c.c.c.c.c.c.c.c.c.c.c.c.c.c.c.c.c.c.c.c.c.c.c.c.c.c.c.c.c.c.c.j.c.c.c.c.c.c.c.c.c.c.c.y.t w Q R.Q.",
"Q.A : 6 u y.c.c.c.c.c.c.c.c.c.c.c.c.c.c.c.c.c.c.c.c.c.c.c.c.c.c.c.c.c.c.c.c.c.h.c.c.c.c.c.c.c.c.c.c.c.c.c.c.c.c.c.c.t.> < n E /.",
"Q.D.A < @ r.c.c.c.c.c.c.c.c.c.c.c.c.c.c.c.c.c.c.c.c.h.c.c.c.c.c.c.c.c.c.c.c.c.c.c.c.c.c.c.c.c.c.c.c.c.c.c.c.c.c.c.c.g.:.6 2 b E.",
"Q.S.b e D f.v.c.c.c.c.c.c.c.c.c.c.c.c.c.c.c.c.c.c.c.c.c.c.c.c.c.c.c.c.c.c.c.c.c.c.c.c.c.c.c.c.c.j.c.c.c.c.c.c.c.c.c.c.v.S h 6.`.",
"Q.z X j ,X{.j.c.c.c.c.c.c.c.c.c.c.h.c.c.c.c.c.c.c.c.c.c.c.c.b.c.c.c.c.c.c.c.c.c.h.c.c.c.c.c.c.c.c.c.c.c.c.c.c.c.c.c.h.y.c.[.*XqX",
"Q.v o l ,X{.c.c.c.c.c.h.c.c.c.c.c.c.c.c.c.c.c.c.c.c.j.j.j.b.c.c.c.c.c.c.c.c.c.c.c.c.c.c.c.c.c.c.c.c.c.c.c.c.c.c.c.c.e.8 k.1X4XeX",
"3XJ.7.p.[.c.c.c.c.c.c.c.c.c.c.c.c.c.c.c.c.c.c.c.c.v.p.F l t H c.c.h.c.c.c.c.c.c.c.c.c.c.c.c.c.c.c.c.c.c.c.c.c.c.c.v.r.> s.1XoX`.",
"qX0.V >.h.c.c.c.c.c.c.c.c.c.c.c.c.c.c.c.c.j.c.c.h.v.e.< 1 2 m c.c.c.c.c.c.c.j.c.c.c.c.c.h.c.c.c.c.c.c.c.c.c.c.c.v.v.y.e Z H 4.Q.",
"qX! # 8 h.c.c.c.c.c.c.c.c.c.c.c.c.c.c.c.c.c.c.c.c.v.e.< 1 1 B c.c.c.c.c.c.c.c.c.c.c.c.c.c.c.c.c.c.c.c.c.c.j.c.c.c.c.y.t < 2 v /.",
"qX_.T 8 y.c.c.c.c.c.c.c.c.c.c.c.c.c.c.c.c.c.c.c.v.v.e.: : : F l.i.i.h.c.c.c.c.c.c.c.c.c.c.c.c.c.c.c.c.c.c.c.c.c.c.v.p.t M M ( ^.",
"eX`.Q < 9 y.v.c.c.c.c.c.c.c.c.h.c.c.c.c.c.c.c.c.b.v.e.: & & * p 4 4 <.[.c.c.c.c.c.c.c.c.c.c.c.c.c.c.c.c.c.c.c.c.c.c.e.n M M ^ Q.",
"`.(.W 9 q.j.c.c.c.c.c.c.c.c.c.c.c.c.c.h.c.c.c.c.c.[.e.3 & & & & & = <.x.b.z.b.c.c.c.c.c.c.c.c.c.c.c.c.c.c.c.c.c.c.v.t.6 r ^ T.E.",
"!.C.f j <X}.h.c.c.c.c.c.c.c.c.c.c.c.c.c.c.c.c.c.c.c.e.3 & * & & & = d v.v.v.c.c.h.c.c.c.c.c.c.c.c.c.h.c.c.c.c.c.h.v.r.> ; v S.Q.",
"^.L 5 Z :X{.c.c.c.c.c.c.c.c.c.c.c.c.c.c.c.c.c.c.c.v.e.3 & & * a p p J e.e.e.f.c.c.c.c.c.c.c.c.c.c.c.c.c.c.c.c.c.c.v.t.- o X z Q.",
"Q.J.i.f.h.c.c.c.c.c.c.c.c.c.c.c.c.c.c.c.c.c.c.c.c.c.e.3 & & d h.h.h.<.3 3 3 1.v.c.c.c.c.c.c.c.c.c.c.c.c.c.c.c.c.c.c.t.> @ @ c Q.",
"Q.U 9 u h y.c.c.c.c.j.c.c.c.c.c.c.c.c.c.c.c.c.c.c.v.e.3 & & d c.v.x.<.& & & <.v.c.c.c.c.c.c.c.c.c.c.c.c.c.c.c.c.c.c.h.t.r.e.H.Q.",
"E.z + o @ y.}.c.c.c.c.c.c.c.c.c.c.c.c.c.c.c.c.c.c.c.e.3 & & d c.x.x.<.* & & <.v.c.c.c.c.c.h.c.c.c.c.c.c.c.c.c.c.c.x.f.S D V 4.Q.",
"Q.T 7 ; > S f.c.c.c.c.c.c.c.c.c.c.c.c.c.c.c.c.c.c.v.e.3 & & a m.m.m.-._ _ _ 3.x.c.c.c.c.c.c.c.c.c.c.c.c.c.c.c.c.c.c.r.@ o X f !.",
"(.^.Q q q 6 1.c.c.c.c.c.c.c.c.c.c.c.c.c.c.h.c.c.c.v.e.3 & * _ ......[ ......#.x.c.c.c.c.c.c.c.c.c.c.c.c.c.c.c.c.c.v.r.> @ @ L !.",
"9X_.T o , q.[.c.c.c.c.c.c.c.c.c.c.c.c.c.c.c.z.b.b.v.e.3 & * _ [ ..[ [ [ [ ..#.v.c.c.c.c.c.c.c.c.c.c.c.c.c.c.c.c.c.c.y.y q E Y.Q.",
"eX4.$ X - P.|.z.c.c.c.c.c.c.c.c.c.c.c.c.c.c.c.v.x.x.y.3 * * _ ........[ [ ..#.x.x.x.c.c.c.c.c.c.c.c.c.c.c.c.c.c.c.c.r.6 2 Q Q.!.",
"eX0.V D S P.{.c.c.c.c.c.c.c.c.c.c.c.c.c.c.c.k.#.%.%.O._ ) ) ] +.O.O.X.[ [ ..o.%.%.%.a.x.c.c.c.c.c.c.h.c.c.c.c.c.c.{.r.@ o f C.!.",
"3XP.7.u.t.h.c.c.c.c.c.c.c.c.h.c.c.c.c.c.c.x.a. .............' v.v.x.%.[ [ ..........m.x.c.c.c.c.c.c.c.c.c.c.c.c.c.c.y.h u 0 L !.",
"^.K - # > t.v.c.c.c.c.c.c.c.c.c.c.c.c.c.c.c.a. ...[ [ [ [ ..' z.x.x.%...[ [ [ [ [ [ m.x.c.c.c.c.c.c.c.c.c.c.c.c.c.c.c.j.g.i.J.!.",
"Q.Y.S.T $ t.v.c.c.j.c.c.c.c.c.c.c.c.c.c.c.x.a. .....[ [ [ ..' b.v.x.%...[ ..[ [ ..{ m.x.c.c.c.c.c.c.c.c.c.c.c.c.c.c.[.:XZ 5 L Q.",
"~.~.!.S.> y.{.c.c.c.c.c.c.c.c.c.c.c.c.c.z.c.a. ...[ ..[ [ ..| +.+.+.X...[ [ [ [ ..[ m.x.c.c.c.z.c.c.c.c.c.c.c.c.c.c.}.<Xh . f ~.",
"!._.`.D.5 C i.c.c.c.c.c.c.c.c.c.c.c.c.c.b.v.a.| ..[ [ [ [ ............[ [ [ ..[ [ [ m.x.c.c.c.c.c.c.c.c.c.c.h.c.c.c.j.q.y g W !.",
"!.oX6X+Xy @ :.v.c.c.c.c.h.c.c.c.c.c.c.z.c.c.a. .....[ [ [ ..[ [ ..[ [ [ [ [ [ [ [ [ m.x.c.c.c.c.c.c.c.c.c.c.c.c.c.c.t.9 q E Y.!.",
"Q.w.~ J w @ :.v.c.c.c.c.c.c.c.c.c.c.c.c.c.c.a. ...[ [ [ [ [ [ [ ..[ [ [ [ [ [ { [ { m.x.c.c.c.c.c.c.c.c.c.c.c.c.c.c.c.y.9 @ K !.",
"Q.v 2 , w o ;.v.c.c.c.c.c.c.c.c.c.c.c.c.c.v.a. ...[ [ [ [ [ [ [ ....' m.m.m.m.m.m.m.k.c.c.c.c.c.c.c.c.c.c.c.c.c.c.c.c.c.9 + f !.",
"Q.4.H Z e / s.b.c.c.c.c.c.c.c.c.c.c.c.c.c.x.a. ...[ ..[ [ [ [ ..[ ..&.x.x.x.x.x.x.x.v.c.c.c.c.c.c.c.c.h.c.c.c.c.c.c.c.g.>.C 5.oX",
"^..X1Xs.7 yX5Xg.c.c.c.c.c.c.c.c.c.c.c.c.c.x.a.| ..............[ ....O.v.c.c.c.c.z.c.c.c.c.c.c.c.c.c.c.c.c.c.c.c.c.c.c.[.y.7.P.eX",
"^.'.1Xs.g %X6Xg.c.c.c.c.c.c.c.c.c.c.c.c.c.x.a.X.{ } } } } } } } } { O.x.c.c.c.c.c.c.c.c.c.c.c.c.c.c.c.c.c.c.c.c.c.c.{.>Xl X P eX",
"^. Xv.j.y.@Xc.j.c.c.c.c.c.c.c.c.c.c.c.c.c.c.h.N.N.N.N.N.N.N.N.N.N.N.a.z.c.c.c.c.c.c.c.c.c.c.c.c.c.c.c.c.c.c.c.c.c.c.[.,Xj % D eX",
"Q.U i ;.v.v.c.c.c.c.c.c.h.c.c.c.c.c.c.c.c.c.c.x.x.x.x.c.x.x.c.c.x.x.b.b.c.c.c.c.c.c.c.c.c.c.c.c.c.c.c.c.c.c.c.c.c.c.l.G e G '.eX",
"`.4.y 6 :.j.c.c.c.c.c.c.c.c.c.c.c.c.c.c.c.c.c.c.c.c.c.c.c.c.c.c.c.c.j.c.c.c.c.c.c.c.c.c.c.c.c.c.c.c.c.c.c.c.c.c.c.c.r.@ < ^ #XeX",
"qX0Xq.< - 7.h.c.c.c.c.c.c.c.c.c.c.c.c.c.c.c.c.c.c.h.c.c.c.c.c.c.c.c.c.c.c.c.c.c.c.c.c.h.c.c.c.c.h.c.c.c.c.c.c.c.c.c.y.u q < ^ eX",
"eXeXG.r q > >.c.c.c.c.c.c.c.c.c.c.c.c.c.c.c.c.c.c.c.c.c.c.c.c.c.c.c.c.c.c.c.c.c.c.c.c.c.c.c.c.c.c.c.c.c.c.c.c.c.c.c.c.f.u o D eX",
"_._.4.r r o :.x.c.c.c.c.c.c.c.c.c.c.c.j.c.c.c.c.c.c.c.c.c.c.c.c.c.c.c.c.c.c.c.c.c.c.c.c.c.c.c.c.c.c.c.c.c.c.c.c.c.c.[.2Xp.2.J._.",
"Q.Z.n < , =.@Xh.c.c.c.c.c.c.c.c.c.c.c.c.c.c.c.c.c.c.c.c.c.c.c.c.c.c.c.c.c.c.c.c.c.c.c.c.c.c.c.c.c.c.c.c.c.c.c.c.c.v.{.1X*Xv. X!.",
"Q.Y F F ~ 7X<Xc.c.c.c.c.c.c.h.c.c.c.c.c.c.c.c.c.c.c.c.c.j.c.c.c.c.c.c.c.c.c.c.c.c.c.c.c.c.c.c.c.c.c.c.c.c.h.c.c.c.c.j.d.8.2.5.!.",
"Q.K.g.:XrX:Xc.c.c.c.c.c.c.c.c.c.c.c.c.c.c.c.c.c.c.c.c.c.c.c.c.c.c.c.c.c.c.c.c.c.c.c.c.c.c.c.c.c.c.c.c.c.c.c.c.c.c.c.y.0 @ @ c !.",
"Q.K.c.:XtX=Xz.c.c.c.c.c.c.c.c.c.c.c.c.c.c.c.c.c.c.c.c.c.c.c.c.c.c.c.c.c.h.c.c.c.c.c.c.c.c.c.c.c.c.c.c.c.c.c.c.c.c.v.z.y.0   x Q.",
"^.I h S >X[.c.c.c.c.h.c.v.v.c.c.c.c.z.z.c.v.c.v.c.c.c.c.c.c.z.c.c.c.c.c.c.c.c.c.c.c.c.c.c.c.c.c.c.c.c.c.z.x.v.c.c.h.c.c.u   x ^.",
"^.z X u g.c.c.c.g.c.,X@X;.>.h.c.c.[.6X5Xs.;.:.:.f.v.v.c.c.{.*X[.,.f.v.c.c.c.c.c.c.c.c.c.c.c.c.c.v.c.c.,X5X#X>.g.}.|.P.:.0 - v Q.",
"Q.x   0 r.t.g.v.=X=X7X=.o > ,.h.c.[.%X&X=.o - - S y.t.y.z.j.@Xq.7 S y.y.c.[.}.j.y.c.c.b.c.{.{.f.t.y.c.8XuX$X> 9.@X;XV.r s s P ^.",
"Q.c @ # # - :.,XtXrX~ , r q > >.c.y.j 6 , r r y 6 # - > r.S - > q , @ h j.;X<Xq.9 i.g.h.[.:X,XG @ 9 f.1X6XV.> $.*.#.#.@.@.#.w./.",
"Q.Y.S.I @ o $ H :X;XF < r w < 6 S j.s.s.Z < m D.S.L o # r.V X O q ; X u f.V j e 6 0 0 :.y.l j e < , h p.*X8.- , < < M *.*.G.W.~.",
"!.~.OXD.@ o   i z.c.F 1 n Q Q g l v.1X1XH ; m T.OXC.X O r.V $ T Q W f u i.5 f R Q W K 5.7.o   v Z.P @ 7.v.7.o o X 2 s *.G.T././.",
"!.!.!.Y.c x z I K.K.Y A Q Q.!.W I I..X.X4.v ( R.!.S.x c H.6.T Q./.!.C.L J.L C.E.!.~.Y.).H.c x S.~.Y.K 5.I.A.c x K c P =.T.!././.",
"Q.!.Q.!.Q.Q.Q.^.Q.!.Q.Q.Q.Q.!.Q./.^.(./././.Q.!.!.Q.Q.Q.Q.Q.Q.!./.!.Q.Q.!.Q.Q.Q.Q.Q.Q.Q.Q.Q.Q.Q.!.!.Q.^././.E./.E.E././././././."
};
