/* XPM */
static char *result[] = {
/* columns rows colors chars-per-pixel */
"64 64 233 2 ",
"   c #3F2C17",
".  c #3B2A26",
"X  c #3D2E29",
"o  c #3E322C",
"O  c #3F382D",
"+  c #3E3532",
"@  c #3F3C3A",
"#  c #3E3937",
"$  c #4A2B1D",
"%  c #45291A",
"&  c #4C351A",
"*  c #4A3617",
"=  c #523D1C",
"-  c #50351C",
";  c #522C1E",
":  c #4E2D21",
">  c #522F22",
",  c #42342D",
"<  c #41392F",
"1  c #4B362C",
"2  c #553224",
"3  c #5A3426",
"4  c #5D3629",
"5  c #573C28",
"6  c #433B31",
"7  c #4C3D33",
"8  c #453D38",
"9  c #523E33",
"0  c #613A2C",
"q  c #3F403F",
"w  c #5B441D",
"e  c #57411C",
"r  c #61481F",
"t  c #4E4E2D",
"y  c #5B4522",
"u  c #57472A",
"i  c #51512E",
"p  c #444335",
"a  c #4B4336",
"s  c #43413D",
"d  c #4B443A",
"f  c #474C39",
"g  c #4B4B3B",
"h  c #494937",
"j  c #544235",
"k  c #594436",
"l  c #594638",
"z  c #5B4C3D",
"x  c #564A3A",
"c  c #4B533D",
"v  c #545531",
"b  c #644C23",
"n  c #654D2B",
"m  c #6C532B",
"M  c #675025",
"N  c #795C2E",
"B  c #624D3C",
"V  c #64553A",
"C  c #755C32",
"Z  c #7B6239",
"A  c #7E602F",
"S  c #414B4C",
"D  c #474946",
"F  c #554C43",
"G  c #4D5541",
"H  c #4D5C42",
"J  c #4A564B",
"K  c #545344",
"L  c #5A544C",
"P  c #55594A",
"I  c #414F52",
"U  c #43595D",
"Y  c #465857",
"T  c #565C57",
"R  c #685847",
"E  c #735A49",
"W  c #66544D",
"Q  c #4E6248",
"!  c #5A634D",
"~  c #54674A",
"^  c #56734F",
"/  c #576758",
"(  c #5D7555",
")  c #577952",
"_  c #597B53",
"`  c #5A7556",
"'  c #4F685F",
"]  c #646749",
"[  c #696758",
"{  c #7B6755",
"}  c #677A55",
"|  c #727656",
" . c #475D62",
".. c #486467",
"X. c #566A69",
"o. c #4E766D",
"O. c #4B737C",
"+. c #557779",
"@. c #4E736D",
"#. c #71766D",
"$. c #876936",
"%. c #9E7938",
"&. c #8F703C",
"*. c #A07B3A",
"=. c #866954",
"-. c #8D775B",
";. c #8D7450",
":. c #8A7B67",
">. c #817976",
",. c #937966",
"<. c #5C8559",
"1. c #5C8759",
"2. c #5F915E",
"3. c #64895E",
"4. c #62935F",
"5. c #72845A",
"6. c #5A9172",
"7. c #6A8767",
"8. c #728C69",
"9. c #619561",
"0. c #639A64",
"q. c #6D9C61",
"w. c #6B9669",
"e. c #78996B",
"r. c #769C74",
"t. c #728E76",
"y. c #67A56A",
"u. c #6AAA6D",
"i. c #68A268",
"p. c #77A269",
"a. c #6BAB73",
"s. c #78A875",
"d. c #6DB472",
"f. c #6EBA75",
"g. c #6CB97C",
"h. c #74B476",
"j. c #7FB176",
"k. c #71BC77",
"l. c #73BD7A",
"z. c #7ABB7C",
"x. c #74B579",
"c. c #6BB06E",
"v. c #72C37A",
"b. c #7BC27D",
"n. c #70C177",
"m. c #6FC278",
"M. c #99855A",
"N. c #848678",
"B. c #948E71",
"V. c #82B679",
"C. c #83BC7D",
"Z. c #80B277",
"A. c #82C17F",
"S. c #497F8B",
"D. c #4A7983",
"F. c #5C7E81",
"G. c #4B828D",
"H. c #55868A",
"J. c #4B8592",
"K. c #4D8A94",
"L. c #4B8E9D",
"P. c #538B96",
"I. c #54939A",
"U. c #58988B",
"Y. c #6E918C",
"T. c #55A09D",
"R. c #63AC85",
"E. c #7CA983",
"W. c #69BB8A",
"Q. c #7AB681",
"!. c #6BBB96",
"~. c #4C93A3",
"^. c #4E9AAC",
"/. c #4E99A7",
"(. c #529BAB",
"). c #5096A5",
"_. c #4E9FB2",
"`. c #549FB2",
"'. c #59ACA3",
"]. c #53A3AD",
"[. c #58A7AB",
"{. c #4FA1B5",
"}. c #4FA4B8",
"|. c #51A4B4",
" X c #51A6B9",
".X c #57AAB7",
"XX c #5FB4BA",
"oX c #68B7AE",
"OX c #7AC682",
"+X c #7DC985",
"@X c #7BC985",
"#X c #7BC299",
"$X c #6EC182",
"%X c #77CBBC",
"&X c #7ED2BB",
"*X c #A29E84",
"=X c #86BE82",
"-X c #8AB88C",
";X c #96B196",
":X c #ADA990",
">X c #96A5A5",
",X c #A8A6A5",
"<X c #B1BDAF",
"1X c #B6BBBB",
"2X c #848F89",
"3X c #C0BFBD",
"4X c #86C181",
"5X c #88C182",
"6X c #84CA8B",
"7X c #85C78C",
"8X c #8BCC92",
"9X c #8AC999",
"0X c #93CC99",
"qX c #8CD094",
"wX c #94D39B",
"eX c #93D39A",
"rX c #86CEAB",
"tX c #89DBB6",
"yX c #97D1A6",
"uX c #A7D1AB",
"iX c #B8D5BA",
"pX c #B1CEB4",
"aX c #8EE2BC",
"sX c #8CE1B6",
"dX c #91E4BC",
"fX c #BED5C0",
"gX c #B1D2DE",
"hX c #92E8C0",
"jX c #C6D9C8",
"kX c #D3DBD4",
"lX c #CACEC8",
"zX c #DFE0DF",
"xX c #E4E1E4",
/* pixels */
"}.}.}.}.}.}.}.}.}.}.|.|.|. X X_.}.}.}..X X X X_.}.}.}.}._.}.}.}.}.}.}.}.}.}.}.}.}.}.}._.}.}. X}.}. X|. X}.}.}.{.}.}.}.}.}.}.}.}.",
"}.}. XL. .U U ..R.W.o.X.F./.X. .o.!.!.oX[._.{._.).O.U  .U.6.U  ._.J.Y ..R.o.G.}._...U @.R...U S.L.X.U U.!.R...U Y O.}.}.}.}.{.}.",
"}.}.}.G.X X . h g.l.] k L +.F 1 H v.8XyXY.D.H.Y.+.F , . 9.` . + D.U . p h.H I S.O.< . c y.O . Y X.k , 4.v.d.< X . I ].}.}.}.}.}.",
"XX.X].F.j j d ^ 7X8X! j l l 9 x ) v.s.s.~ 7 E E W 1 . , 9.^ . , j 9 , p f._ K F j c c ^ a.! K g j j c u.+Xh.p h c J O.K.K.K.L.{.",
"hX.XY.-.=.-.e.7XkXkX[ 9 l j < ) v.f.G 7 j j k k 1 , < 6 0.` o 6 j 7 o c f.8XwXr.p u.v.f.b.8X0X7., p u.eXyX9Xd 0.v.9.6 , + o q ~.",
"sX#.L B 9 N.4Xv.7X7X1X{ X d 0.d.v.b.<X1X#., , , ~ y.y.u.f.z.=Xr.a ~ y.u.n.v.OXx.u.v.v.v.v.OXOXh.y.u.v.iXkX3XD i.v.l.r.< X X @ ~.",
"sXT 1 g ) x.OXv.m.v.jX>.. p f.v.v.+XkXxX>.. X . ^ v.v.v.v.6XeX7X6 ^ v.v.v.v.v.v.v.v.v.v.v.v.m.v.v.v.v.jXxXlXl i.v.+X7X_ q . @ ~.",
"tXJ . H v.v.v.v.v.v.pXt.f Q g.v.v.v.iXjXN.h c c 1.v.v.v.v.+X6XQ.H <.v.v.v.v.v.v.v.v.v.v.v.v.v.v.v.v.v.pXjXpX! y.v.OX6X8X_ c J /.",
"].S X c u.c.x.v.v.v.OXg.l.f.v.v.v.v.v.v.l.l.k.k.k.v.v.v.v.v.v.v.l.l.v.v.v.v.v.v.v.v.v.v.n.v.v.v.v.v.v.v.b.v.l.v.v.v.7XkX8Xf.g.[.",
"{.S X , p 6 1.v.v.v.v.v.v.v.v.v.v.v.v.v.v.v.v.v.v.v.v.v.v.v.v.v.v.v.v.v.v.v.v.v.v.v.v.v.v.v.v.v.v.v.v.v.v.v.v.v.v.v.7XkX0Xk.$X].",
"|.6.4.i.r.>X-Xv.v.v.v.v.v.v.v.v.v.v.v.v.v.v.v.v.v.v.v.v.v.v.v.v.v.v.v.v.v.v.v.v.v.v.v.v.v.v.v.v.v.v.v.v.v.v.v.v.v.v.h.#.} ] ( (.",
" X$Xv.6XwXkXuXv.v.v.v.v.v.v.v.v.v.v.v.v.v.v.v.v.v.v.v.v.v.v.v.v.v.v.v.v.v.v.v.v.v.v.v.v.v.v.v.v.v.v.v.v.v.v.v.v.v.v.u.6 9 k F ).",
" XR.u.l.wXiXuXv.v.v.v.v.v.v.v.v.v.v.v.v.v.v.v.v.v.v.v.v.v.v.v.v.v.v.v.v.v.v.v.v.v.v.v.v.v.v.v.v.v.v.v.v.v.v.v.v.v.v.c.z k l T ^.",
"{.J < ~ x.v.v.v.v.v.v.v.v.v.v.v.v.v.v.v.v.v.v.v.v.v.v.v.v.v.v.v.v.v.v.v.v.v.v.v.v.v.v.v.v.v.v.v.v.v.v.v.v.v.v.v.v.v.a.z k L ~.{.",
"`.T 9 j f 0.v.v.v.v.v.v.v.v.v.v.v.v.v.v.v.v.v.v.v.v.v.v.v.v.v.v.v.v.v.v.v.v.m.v.v.v.v.v.v.v.v.v.v.v.v.v.v.v.v.v.v.v.y.6 9 F T (.",
"`.S./ 9 o 2.v.v.v.v.v.v.v.v.v.v.v.v.v.v.v.v.v.v.v.v.v.v.v.v.v.v.v.v.v.v.v.v.v.v.v.v.n.v.v.v.v.v.v.v.v.v.v.v.v.v.v.v.f.<.x 1 d ~.",
"{.J. .x P y.v.v.v.v.v.v.v.v.v.v.v.v.v.v.v.v.v.v.v.v.v.v.v.v.v.v.v.v.v.v.v.v.v.v.v.v.l.v.v.v.v.v.v.v.v.v.v.v.v.v.v.v.v.v.) c Q [.",
"_.I X ! 0X+Xv.v.v.v.v.v.v.v.v.v.v.v.v.v.v.v.v.v.v.v.v.v.v.v.v.v.v.n.v.v.v.v.v.v.v.v.v.v.v.v.v.v.v.v.v.v.v.v.v.v.v.v.m.f.l.v.OXsX",
"`.S X ! wX+Xv.v.v.v.v.v.v.v.v.v.v.v.v.v.v.v.l.v.v.v.v.v.v.v.v.v.v.v.v.v.v.v.v.v.v.v.v.v.v.v.v.v.v.v.v.v.v.v.v.v.v.v.u.c a.qXqXaX",
"&Xa.0.a.+Xb.v.v.v.v.v.v.v.v.v.v.v.m.v.v.v.v.v.v.v.v.v.v.v.v.v.v.v.v.v.v.v.v.v.v.v.v.v.v.v.v.v.v.v.v.v.v.v.v.v.v.v.v.u.< r.eXeXoX",
"aXw.<.9.v.v.v.v.v.v.v.v.v.v.v.v.v.v.v.v.v.v.v.v.b.v.v.v.v.v.v.v.v.v.v.v.v.v.v.v.v.v.v.v.v.v.v.v.v.v.v.v.v.v.v.v.v.v.u.a ( 7.t.^.",
"aX' + H v.v.v.v.v.v.v.v.v.v.v.v.v.v.v.v.v.v.b.b.A.A.b.b.b.b.A.p.4.A.A.b.A.A.A.b.b.b.b.v.v.v.v.v.v.v.v.v.v.v.v.v.v.b.c.z 7 , D ~.",
"aX[...G l.v.v.v.v.v.v.v.v.v.v.v.v.v.v.v.v.b.C.5X=XA.=X5XA.5XZ.B 5 ] Z.C.=X=X5XA.5XA.A.v.v.v.v.v.v.v.v.v.v.v.v.v.v.v.c.B R E [ ).",
"hXXX+.g c 0.v.v.m.v.v.v.v.v.v.v.v.v.v.v.v.b.=X5X=X5XA.5XC.e.V 4 ; 2 V e.A.5X=X=X=X5XC.v.v.v.v.v.v.v.v.v.v.v.v.v.v.v.u.l E E { (.",
"%X XO.x } a.v.v.v.v.v.v.v.v.v.v.v.v.v.v.v.b.A.5XA.5X=XC.5.0 4 3 & : : 7 e.A.A.5X5XC.A.v.v.v.v.v.v.v.v.v.v.v.v.v.v.v.u.g B W H.`.",
"{.J.I ! wX6Xv.v.v.v.v.v.v.v.v.v.v.v.v.v.n.b.A.A.5X5XV.{ 4 2 4 4 > : : % u 8.V.5X=X5XA.v.v.v.v.v.v.v.v.v.v.v.v.v.v.v.u.O 1 F G.(.",
"{.Y O / wX+Xv.v.v.v.v.v.v.v.v.v.v.v.v.v.v.A.C.V.A.V.| = 2 3 0 0 > 2 : $ $ 3 | 5X4X4XC.v.v.v.v.v.v.v.v.v.v.v.v.v.v.v.u.6 X X 8 ~.",
"}.a.c.x.b.v.v.v.v.v.v.v.l.v.v.v.v.v.v.v.b.A.A.C.B.] 0 ; ; 3 3 - $ $ : $ : $ u } V.4XC.v.v.v.v.v.v.v.v.v.v.v.v.v.v.v.u.< X o 8 ~.",
"{.o.~ ~ ~ y.v.v.v.v.v.v.v.v.v.v.v.v.v.v.v.b.C.Z.V 3 4 3 2 2 5 - * % > % $ : : > } V.C.v.v.v.v.v.v.v.v.v.v.v.v.v.v.v.f.2.2.1.9.^.",
"_.q . X X 9.v.v.v.v.v.v.v.v.v.v.v.v.v.v.v.b.Z.l 3 4 3 2 ; 2 5 = & & % % % > : : > } z.v.v.v.v.v.v.v.v.v.v.v.v.v.v.v.f.0.9.9.6.].",
"{.U q , O _ f.v.v.v.v.v.v.v.v.v.v.v.v.v.v.z.V 2 3 3 3 - ;   w C y n = & : : : : $ 5 3.v.v.v.v.v.v.v.v.n.v.v.v.v.v.v.u.< o X s ~.",
" X].@.k j p <.v.v.v.v.v.v.v.v.v.v.v.v.v.v.h.V 2 0 3 3 5 % *   5 N N n y   : > : 2 $ 5.v.v.v.v.v.v.v.v.v.v.v.v.v.v.v.u.< X o q ~.",
"tX.XO., , 3.l.v.v.v.v.v.v.v.v.v.v.v.v.v.v.h.B > 3 3 2 * * * e m N N M r = % $ $ % : } v.v.v.v.v.v.v.v.v.v.v.v.v.v.v.u.z j F J.`.",
"sXH.S . X r.qXv.v.v.v.v.v.v.v.v.v.v.v.v.v.h.V 2 3 & * e e e w M M b r M r = = $ : : _ v.v.v.v.l.v.v.v.v.v.v.v.v.v.v.u.a 1 J ^.}.",
"tX` f f c s.+Xv.v.v.v.v.v.v.v.v.v.v.v.v.v.k.V - 2 * * w e e w w w e r M w = w & % : } v.v.v.v.v.v.v.v.v.v.v.v.v.v.v.u.o X 8 S._.",
"tXQ.u.u.y.f.v.v.n.v.v.v.v.v.v.v.v.v.v.v.v.j.V ] t   * y C Z m M w w M m C n r = * u } v.v.v.v.v.v.v.v.v.v.v.v.v.v.v.u.f p p S /.",
" XY p p p 4.v.v.v.v.v.v.v.v.v.v.v.v.v.v.v.z.p.Z.i * r C $.&.Z Z y e C M.:.B.E w t e.p.v.v.v.v.v.v.v.v.v.v.v.v.v.v.v.l.d.d.d.a.|.",
"}.J.O.U o 4.v.v.v.v.v.v.v.v.v.v.n.v.v.v.v.b.5XV.i * m $.%.%.m Z M w Z :XN.1XM.w t j.b.v.v.v.v.v.v.v.v.v.v.v.v.v.v.v.v.8X<.H ^ ^.",
"}. X{.D.X 4.v.v.v.v.v.v.v.v.v.v.v.v.v.v.v.b.A.Z.v = m $.%.%.A ;.y e M.>X#.>Xt.- t j.A.v.v.v.v.v.v.v.v.v.v.v.v.v.v.v.OXwXT . # ~.",
"}. X.XJ., 3.k.v.v.v.v.v.v.v.v.v.v.v.v.v.v.A.5XZ.i * m $.%.%.Z ;.b e B.gX2XgX,X5 i j.A.v.v.v.v.v.v.v.v.v.v.v.v.v.v.v.b.7XP X S ~.",
" X&XtXE.j 8 <.v.v.v.v.v.v.v.v.n.v.v.v.v.v.b.A.C.v * m $.*.*.C ;.M w M.*XB.B.B.e t j.A.v.v.v.v.v.v.v.v.v.v.v.v.v.v.v.u.g j L ~.{.",
" XY.N.| l , _ v.v.v.v.v.v.v.v.v.v.v.v.v.v.b.A.V.v * n m N $.y ;.M y M m y r y w t l.A.v.v.v.v.v.v.v.v.v.v.v.v.v.v.v.f.4.c 8  .^.",
"].T 9 l k , _ v.v.v.v.v.v.v.v.v.v.v.v.v.v.v.A.b.i.4.q.q.q.q.q.p.q.q.i.p.q.q.q.q.i.z.b.v.v.v.v.v.v.v.v.v.v.v.v.v.v.v.v.v.H . @ ~.",
"{.' c z 9 L w.OXv.v.v.v.v.v.v.v.v.v.n.v.v.v.v.v.v.v.v.v.v.v.v.v.v.v.v.n.v.v.v.v.v.v.m.v.v.v.v.v.v.v.v.v.v.v.v.v.v.v.v.v.^ c J [.",
"}.#X8Xr., ,XuXl.v.v.v.v.v.v.v.v.v.v.v.v.v.v.v.v.v.v.v.v.v.v.v.n.v.v.v.v.v.v.v.v.v.v.v.v.v.v.v.v.v.v.v.v.v.v.v.v.v.v.v.v.f.d.g.tX",
" X9XeXr.o ,XuXv.v.v.v.v.v.v.v.v.v.v.v.v.v.v.v.v.v.v.v.v.v.v.v.v.v.v.v.v.v.v.v.v.v.v.v.v.v.v.v.v.v.v.v.v.v.v.v.v.v.v.b.qX( f ~ rX",
" X#X6Xh._ -X8Xv.v.v.v.v.v.v.v.v.v.v.v.v.v.v.v.v.v.v.v.v.v.v.v.v.v.v.v.v.v.v.v.v.v.v.v.v.v.v.v.v.v.v.v.v.v.v.v.v.v.v.v.yXP . p rX",
"^.6.1.0.v.v.v.v.v.v.v.v.n.v.v.v.v.v.v.v.v.v.v.v.v.v.v.v.v.v.v.v.v.v.v.v.v.v.v.v.v.v.v.v.v.v.v.v.v.v.v.n.v.v.v.v.v.v.x.r.K p #.tX",
"[.Y < c u.l.v.v.v.v.v.v.v.v.v.v.v.v.v.v.v.v.v.v.v.v.v.v.v.v.v.v.v.v.v.v.v.v.v.v.v.v.v.v.v.v.v.v.v.v.v.v.v.v.v.v.v.v.u.O a ] -XhX",
"aX&X8.j p 9.v.v.v.v.v.v.v.v.v.v.v.v.v.v.v.v.v.v.v.v.v.v.v.v.v.v.v.v.v.v.v.v.v.v.v.v.v.v.v.v.v.v.v.v.v.v.v.v.v.v.v.v.u.< 9 l T tX",
"hXhXE.9 9 g 9.v.v.v.v.v.v.v.v.v.v.v.v.v.v.v.v.v.v.v.v.v.v.v.v.v.v.v.v.v.v.v.v.v.v.v.v.v.v.v.v.v.v.v.v.v.v.v.v.v.v.v.f.0.c , x rX",
"%X%Xt.l k , ) v.v.v.v.v.v.v.v.v.v.v.v.v.v.v.v.v.v.v.v.v.v.v.v.v.v.v.v.v.v.v.v.n.v.v.v.v.v.v.v.v.v.v.v.v.v.v.v.v.v.v.v.6X3.~ ` oX",
"}.P.X.u 9 W w.v.v.v.v.v.v.v.v.v.v.v.v.v.v.v.v.v.v.v.v.v.v.v.v.v.v.v.v.v.v.v.v.v.v.v.v.v.v.v.v.v.v.v.v.v.v.v.v.v.v.v.OXwX+Xv.$X[.",
"_./ z l 7 ,XuXv.v.v.v.v.v.v.v.v.v.v.v.v.v.v.v.v.m.v.v.v.v.v.v.v.v.v.v.v.v.v.v.v.v.v.v.v.v.v.v.v.v.v.v.v.v.v.v.v.v.v.b.9Xz.f.g.].",
" XR.u.-X1X0X+Xv.v.v.v.v.v.v.v.v.v.v.v.v.v.v.v.v.v.v.v.v.v.v.v.v.v.v.v.v.v.v.v.v.v.v.v.v.v.v.v.v.v.v.v.v.v.v.v.v.v.v.c.G d f J ~.",
" XW.v.wXxX0Xl.v.v.v.v.v.v.v.v.v.v.v.v.v.v.v.v.v.v.v.v.v.v.v.v.v.v.v.v.v.v.v.v.v.v.v.v.v.v.v.v.v.v.v.v.v.v.v.v.n.v.v.d.<.p X @ ~.",
" X6.9.=XfX8Xv.v.v.v.n.n.v.v.v.v.v.v.v.m.v.v.v.v.v.v.v.v.v.v.v.v.v.v.v.v.v.v.v.v.v.v.v.v.v.v.v.v.v.v.v.v.v.m.v.v.v.v.v.v.H . @ ~.",
"|.S . H v.v.v.v.v.v.6Xh.u.c.v.v.v.v.7X7Xx.u.u.u.d.v.v.m.v.v.OXv.u.d.v.v.v.v.v.v.v.v.v.v.v.n.v.v.v.v.v.6X7X7Xc.l.v.v.v.u.K , s ~.",
"_.S . H g.v.m.v.v.v.iX>.O f d.v.v.OXlXkX#.O 6 , ) m.m.m.v.+X6X=Xf ^ v.v.v.v.v.v.n.v.v.v.v.v.v.v.n.n.v.iXkXlXF i.6XqXz.a j l K ).",
"_.S . < H c 2.7XiXlX>.F 9 j c 2.v.g.[ [ W j 7 9 g G c H y.7.P P j g c ~ f.6XeXs.Q x.$Xv.v.eXeXw.c Q f.yXiX;Xd | B.B.B.E =.=.=.(.",
"_.O...I X X G w.uXpXW 9 k k 1 H 0.l._ ` K 9 R X...I X X 0.^ . X k 7 . p f.s.8./ 7 ) _ 9.k.8.t.! 1 7 ) z.qXz.p R W E =.,.,.,.Y.`.",
"}.}..XH.o X X f l.n.~ l z L L 8 H v.eXeX} 1 [ `. XG.o , 0.^ o q L S @ d d.H + D J D @ Q u.6 . d P P 6 9.v.a.6 X : : B -.>.Y.`.|.",
"}.}. XG.+ o o c f.v.] l T ^.(...Q v.8X9X[ 6 [ `.}.G.+ + 0.) S L.^.^.O.f f.Q  .~._.^.~.U.a.p X ..(.L.D 9.$Xd.8 + X , W ,.Y.`..X X",
"}.}.}./.S.S.S.K.'.'.P.P.L.}.}.~.K.'.oXoXI.J.I.{.}.^.S.S.I.I.J.{.}.{./.G.'.L.L._.}.}._.^.'.J.S.~. X{.K.).'.'.J.S.S.S.P.I.`.}.}.}."
};
