/* XPM */
static char *result[] = {
/* columns rows colors chars-per-pixel */
"64 64 210 2 ",
"   c #371E1B",
".  c #39211E",
"X  c #36211F",
"o  c #3A2522",
"O  c #3C2B25",
"+  c #3D2D29",
"@  c #352321",
"#  c #3E332C",
"$  c #3D3431",
"%  c #3C393B",
"&  c #452B25",
"*  c #42332C",
"=  c #49332B",
"-  c #40382F",
";  c #573C2F",
":  c #433C32",
">  c #4B3B31",
",  c #523D32",
"<  c #454334",
"1  c #4A4436",
"2  c #4B433A",
"3  c #474B39",
"4  c #494D3A",
"5  c #494B37",
"6  c #544235",
"7  c #594436",
"8  c #524539",
"9  c #5A4638",
"0  c #544A3C",
"q  c #5C4C3C",
"w  c #4A513C",
"e  c #4D5E3F",
"r  c #644B3B",
"t  c #3D454B",
"y  c #4E4C40",
"u  c #444342",
"i  c #594D41",
"p  c #4B5A41",
"a  c #525344",
"s  c #595146",
"d  c #535847",
"f  c #425256",
"g  c #435559",
"h  c #455A5C",
"j  c #4B5A5B",
"k  c #495857",
"l  c #565451",
"z  c #6E5949",
"x  c #735946",
"c  c #4E6143",
"v  c #526A4A",
"b  c #56734C",
"n  c #58784F",
"m  c #5B6B51",
"M  c #54615D",
"N  c #5C6C5B",
"B  c #567550",
"V  c #597D54",
"C  c #5B705E",
"Z  c #606846",
"A  c #61664E",
"S  c #616744",
"D  c #607159",
"F  c #627B5B",
"G  c #726555",
"H  c #445F66",
"J  c #4B6B64",
"K  c #456166",
"L  c #5D6A66",
"P  c #536767",
"I  c #4F796C",
"U  c #4D776A",
"Y  c #587C6E",
"T  c #466B74",
"R  c #4A6C74",
"E  c #516E71",
"W  c #49737A",
"Q  c #53767A",
"!  c #567777",
"~  c #706963",
"^  c #68766A",
"/  c #7E7371",
"(  c #687C77",
")  c #866D57",
"_  c #8F725C",
"`  c #91745D",
"'  c #917A64",
"]  c #857878",
"[  c #598356",
"{  c #5B8558",
"}  c #5D8A5B",
"|  c #5F915F",
" . c #608E5F",
".. c #61915F",
"X. c #63985F",
"o. c #598677",
"O. c #5C9C7F",
"+. c #5C9572",
"@. c #58846E",
"#. c #649C62",
"$. c #689B68",
"%. c #739B6A",
"&. c #689974",
"*. c #769875",
"=. c #74867B",
"-. c #68A567",
";. c #67A469",
":. c #68A66B",
">. c #6AAB6D",
",. c #66A065",
"<. c #6DB36E",
"1. c #6DA970",
"2. c #7EA37E",
"3. c #7BAB7C",
"4. c #74A875",
"5. c #6DB372",
"6. c #6EBC75",
"7. c #70BE77",
"8. c #74BD7A",
"9. c #79BB7E",
"0. c #6FC276",
"q. c #70C475",
"w. c #72C37A",
"e. c #74C97D",
"r. c #79C87E",
"t. c #829A7F",
"y. c #84A47A",
"u. c #497A86",
"i. c #547C84",
"p. c #5D9F81",
"a. c #4A8493",
"s. c #4E8C95",
"d. c #4A8998",
"f. c #58959A",
"g. c #578992",
"h. c #678485",
"j. c #739387",
"k. c #5FA383",
"l. c #62AE89",
"z. c #63A581",
"x. c #66B78E",
"c. c #66B98F",
"v. c #6FB384",
"b. c #76B984",
"n. c #6ABC92",
"m. c #7DAE90",
"M. c #4D96A7",
"N. c #589CAA",
"B. c #4D9EB3",
"V. c #519EB1",
"C. c #609BA7",
"Z. c #5CABA7",
"A. c #4FA3B7",
"S. c #4FA4B8",
"D. c #4FA9BE",
"F. c #52A3B6",
"G. c #50A5B8",
"H. c #52AABC",
"J. c #5FB5BB",
"K. c #61B5B9",
"L. c #66BAB9",
"P. c #73BCA6",
"I. c #7BC582",
"U. c #7BC983",
"Y. c #79CD83",
"T. c #7ED087",
"R. c #7FD189",
"E. c #69C092",
"W. c #78C09F",
"Q. c #6CC2BD",
"!. c #7AC7AD",
"~. c #4FADC4",
"^. c #8F8F88",
"/. c #83AE84",
"(. c #86B787",
"). c #8FB99B",
"_. c #A6A8A1",
"`. c #B7B6B3",
"'. c #C3BDBF",
"]. c #83CD8B",
"[. c #88C98F",
"{. c #84C688",
"}. c #8BC790",
"|. c #8BCA92",
" X c #91CB97",
".X c #94CC99",
"XX c #92C797",
"oX c #87D295",
"OX c #94D19C",
"+X c #93D799",
"@X c #93C28E",
"#X c #95D4A6",
"$X c #84DABE",
"%X c #87D0A3",
"&X c #A6D3AB",
"*X c #A0D7A7",
"=X c #B3C3B3",
"-X c #B9D6BC",
";X c #8FE4BF",
":X c #91E6BE",
">X c #93E9BF",
",X c #BED9C1",
"<X c #91E7C0",
"1X c #92E9C2",
"2X c #CFD8D0",
"3X c #D3DCD4",
"4X c #C7D8C8",
"5X c #DBE3DD",
"6X c #C9E0CD",
"7X c #EEE9EE",
/* pixels */
"S.A.S.S.S.A.A.S.A.A.F.A.S.G.A.A.F.A.S.G.S.S.H.F.F.G.G.G.S.S.A.A.S.A.A.A.A.A.A.A.S.S.A.A.A.A.A.A.A.A.A.A.F.A.A.A.A.A.A.S.S.S.S.S.",
"S.S.G.M.h g f I c.x.Y M Q V.E k I n.W.P.Z.A.H.C.g.R f H k.@.f K B.W f J l.J a.D.M.H f o.k.h g d.f.P h O.E.O.h g f u.A.F.S.A.S.A.",
"F.F.D.d.# o . e 0.0.S ; s ! i & e r.+X%Xp.R i.i.L u & + -.b o # R u . w <.< t W E + @ n ,.O X j L , O X.r.#.+ o . k F.H.D.H.D.A.",
"K.F.F.g.8 , 1 F |.}.A , 7 7 6 1 V w.3.3.A > x x r = + # :.B O # , = O w 5.m a 0 , w 4 } >.d d 8 , 8 w >.Y.$.- 3 4 k W s.d.d.M.A.",
";XL.h.` _ ` %..X3X2X~ , 7 6 -  .e.<.y 1 8 9 9 9 > - # < :.V : : 6 : # p 7.|.OX*.4 1.0.7.I..X.XD # 4 1.OX#X/.< :.w.} : $ # # h A.",
";X=.s r 8 y.I.I.[.|.`.] * :  .7.q.(.`.'./ + * * V :.:.:.6.9.y.*.1 [ :.>.w.I.U.8.:.7.e.w.w.I.I.5.;.:.w.-X5X_.< >.e.8.*.# + O g A.",
">XD & 5 { 9.U.0.0.w.2X^.@ - >.e.q.{.5X7X^.  + O  .Y.w.e.w.].+X}.2 | e.e.w.w.w.w.e.w.w.w.w.w.7.e.e.e.e.4X7X_.1 >.e.].}.{ : . f A.",
"!.J o w w.e.w.w.w.w.&X/.p v <.w.w.I.-X,Xj.p c c ,.e.w.w.w.I.oXb.b ;.w.w.w.w.w.w.w.w.w.w.w.w.w.w.w.0.w.&X-X_.b 5.0.I.|..XV e I A.",
"F.g o 5 :.1.6.w.w.w.w.w.w.w.w.w.w.8.w.w.w.w.w.w.w.w.w.w.w.w.w.w.w.w.w.w.w.w.w.w.w.w.w.w.w.w.w.w.w.w.w.w.w.w.w.w.w.0.[.3X|.q.c.A.",
"A.h + - < < } I.w.w.w.w.w.w.w.w.w.w.w.w.w.w.w.w.w.w.w.w.w.w.w.w.w.w.w.w.w.w.w.w.w.w.w.w.w.w.w.w.w.w.w.w.w.w.w.w.w.0.[.2X}.0.x.A.",
"A.O.X.;.2._.(.w.w.w.w.w.w.w.w.w.w.w.w.w.w.w.w.w.w.w.w.w.w.w.w.w.w.w.w.w.w.w.w.w.w.7.w.w.w.w.w.w.w.w.w.w.w.w.w.w.w.e.1.~ A S Y F.",
"A.E.e.].#X5X&X0.w.w.w.w.w.w.w.w.w.w.w.w.w.w.w.w.w.w.w.w.w.w.w.w.w.w.w.w.w.w.w.w.w.w.w.w.w.w.w.w.w.w.w.w.w.w.w.w.w.e.:.: , ; M A.",
"A.O.#.>.OX-X.Xw.w.7.w.w.w.w.w.w.w.w.w.w.w.w.w.w.w.w.w.w.w.w.w.w.w.w.w.w.w.w.w.w.w.w.w.w.w.w.w.w.w.w.w.w.w.w.w.w.8.e.>.q 7 s Q A.",
"A.h * w 5.w.w.w.w.w.w.w.w.w.w.w.w.w.w.w.w.w.w.w.w.w.w.7.w.w.w.w.w.w.w.w.w.w.w.w.w.w.w.w.w.w.w.w.w.w.w.w.w.w.w.w.w.e.>.q 7 ! V.S.",
"F.P ; 6 4 >.e.w.w.w.w.w.w.w.w.w.w.w.w.w.w.w.w.w.w.w.w.w.w.w.w.w.w.7.w.w.w.w.w.w.w.w.w.w.w.w.w.w.w.w.w.w.w.w.w.w.w.w.;.: , s E F.",
"F.s.M , + ;.e.w.w.w.w.w.w.w.w.w.w.w.w.w.w.w.w.w.w.w.w.w.w.w.w.7.w.w.w.w.w.w.w.w.w.w.w.w.w.w.w.w.w.w.w.w.w.w.w.w.w.w.6.} 1 & k B.",
"A.a.k 8 N 5.e.w.w.w.w.w.w.w.w.w.w.w.w.w.w.w.w.w.w.w.w.w.w.w.w.w.w.w.w.w.w.w.w.8.w.w.w.w.w.w.w.w.w.w.w.w.w.7.w.w.w.w.e.e.V p @.L.",
"A.f o a .XU.w.w.w.w.w.w.w.w.w.w.w.w.w.w.w.w.w.w.w.w.w.w.w.w.w.w.w.w.w.w.w.w.w.w.w.w.w.w.w.w.w.w.w.w.w.w.w.w.w.w.w.w.7.>.8.e.oX1X",
"F.h O d  XI.q.w.w.w.w.w.w.w.w.w.w.w.w.w.w.w.w.w.w.w.w.w.w.w.w.w.w.w.w.w.w.w.w.w.w.w.w.w.w.w.w.w.w.w.w.w.w.w.w.w.w.e.;.4 3.oX%X>X",
"$Xv.#.>.I.e.w.w.w.w.w.w.w.w.w.w.w.w.w.w.w.w.7.w.w.w.w.w.w.w.w.w.w.w.w.w.w.w.w.w.w.w.w.7.w.w.w.w.w.w.w.w.w.w.w.w.w.e.;.: m.+X%XK.",
">X&.b  .7.w.w.w.w.w.w.w.w.w.w.w.w.w.w.w.w.w.w.w.w.w.w.w.w.w.w.w.w.w.w.w.w.w.w.w.w.w.w.w.w.w.w.w.w.w.w.w.w.w.w.w.w.e.>.0 m F o.F.",
">X! % 4 7.w.w.w.w.w.w.w.w.w.w.w.w.w.w.w.w.w.w.w.w.w.w.w.w.w.w.w.w.w.w.w.w.w.w.w.w.w.w.w.w.w.w.w.w.w.w.w.w.w.w.w.w.w.>.q = = j F.",
":XK.K 4 >.w.w.w.w.8.w.w.w.w.w.w.w.w.w.w.w.w.w.w.w.w.w.w.w.w.w.w.w.w.w.w.w.w.w.w.w.w.w.w.w.w.w.w.w.w.w.w.w.w.w.w.w.e.1.q x x ^ G.",
">XL.Q , 5 >.e.w.w.w.w.w.w.w.w.w.w.w.w.w.w.w.w.w.w.w.w.w.w.w.w.w.w.w.w.w.w.w.w.w.w.w.w.w.w.w.w.w.w.w.w.w.w.w.w.w.w.w.1.i x x ^ F.",
"L.H.W 4 *.8.w.w.w.w.w.w.w.w.w.w.w.w.w.w.w.w.w.w.w.w.w.w.w.w.8.w.w.w.w.w.w.w.w.w.7.w.w.w.w.w.w.w.w.w.w.w.w.w.w.w.w.e.:.1 9 ^ N.B.",
"A.u.t a #XU.7.w.w.w.w.w.w.w.w.w.w.w.w.w.w.w.w.w.w.w.w.7.w.w.w.w.w.w.w.w.w.w.w.w.w.w.w.w.w.w.w.w.w.w.w.w.w.w.w.w.w.w.:.- = k a.F.",
"A.J < m |.I.w.w.w.w.w.w.w.w.w.w.w.w.w.w.w.w.w.w.w.w.w.w.w.w.w.w.w.w.w.w.w.w.w.w.w.w.w.w.w.w.w.w.w.w.w.w.w.w.w.w.w.e.:.- O o g A.",
"A.l.<.5.7.7.w.w.w.w.w.w.w.w.w.w.w.w.w.w.w.w.w.w.w.w.w.w.w.w.w.w.w.w.w.w.w.w.w.7.w.w.w.w.w.w.w.w.w.w.w.w.w.w.w.w.w.e.:.: # # h A.",
"A.J 5 w p >.e.w.w.w.w.w.w.7.w.w.w.7.w.w.w.w.w.w.w.w.w.w.w.w.w.w.w.w.w.w.w.w.w.w.w.w.w.w.w.w.w.w.w.w.w.7.w.w.w.w.w.w.6.:.:.:.k.A.",
"A.f @ O # >.e.w.w.w.w.w.w.w.w.w.w.w.w.w.w.w.w.w.w.w.w.w.w.w.w.w.w.w.w.w.w.w.w.w.w.w.w.w.w.w.w.w.w.w.w.w.w.w.w.w.w.e.5.V B b @.A.",
"A.W 2 = : V 5.e.w.w.w.w.w.w.w.w.w.w.w.w.w.w.w.w.w.w.w.w.w.w.w.w.w.w.w.w.w.w.w.w.w.w.w.w.w.w.w.w.w.w.w.w.w.w.w.w.w.e.;.# O o t D.",
"H.F.W 6 7 1 } e.w.w.w.w.w.w.w.w.w.w.w.w.w.w.w.w.w.w.w.w.w.w.w.w.w.w.w.w.w.w.w.w.w.w.w.w.w.w.w.w.w.w.w.w.w.w.w.w.w.w.;.: * # K D.",
"$XK.T + > *.I.w.w.w.w.w.w.w.w.w.w.w.w.w.w.w.w.w.w.w.w.w.w.w.w.w.w.w.w.7.w.w.w.w.w.w.w.w.w.w.w.w.w.w.w.w.w.w.w.w.w.e.>.0 , E M.F.",
"1Xo.% o * b.T.0.w.w.w.w.w.w.w.w.w.w.w.w.w.w.w.w.w.w.w.w.7.w.w.w.w.w.w.w.w.w.w.w.w.w.w.w.w.w.w.w.w.w.w.w.w.7.w.w.7.e.:.< = W S.F.",
">X*.b b V b.I.w.w.w.w.w.w.w.w.w.w.w.w.w.w.w.w.w.w.w.w.w.w.w.w.w.w.w.w.w.w.w.w.w.w.w.w.w.8.w.w.w.w.w.w.w.w.w.w.w.w.I.;.# O t u.S.",
"$Xv.$.;.:.7.w.w.w.w.w.w.w.w.w.w.w.w.w.w.w.w.w.7.w.w.w.w.w.w.w.w.w.w.w.w.w.w.w.w.w.w.w.w.w.w.w.w.w.w.w.w.w.w.w.w.w.e.:.p w 5 J S.",
"F.K - : < :.e.w.w.w.w.8.w.w.w.w.w.w.w.w.w.w.w.w.w.w.w.w.w.w.w.w.w.w.w.w.w.w.w.w.w.w.w.w.w.w.w.w.w.w.w.w.w.w.w.w.w.w.w.8.5.<.x.A.",
"A.M.a.T $ :.e.w.w.w.w.w.w.w.w.w.w.w.w.w.w.w.w.w.w.w.w.w.w.w.w.w.w.w.w.w.w.w.w.w.w.w.w.w.w.w.w.w.w.w.w.w.w.w.w.w.w.w.U.|.m < J A.",
"S.S.S.a.: :.e.w.w.w.w.w.w.w.w.w.w.w.w.w.w.w.w.w.w.w.w.w.w.w.w.w.w.w.w.w.w.w.w.w.w.w.w.w.w.w.w.w.w.w.w.w.w.w.w.w.w.w.I..Xa X t S.",
"S.J.Q.f.1 V 5.w.w.w.w.w.w.w.w.w.w.w.w.w.w.w.w.w.w.w.w.w.w.w.w.w.w.w.w.w.w.w.w.w.w.w.w.w.w.w.w.w.w.w.w.w.w.w.w.w.w.w.7.*.a u W S.",
"S.!.#X/.9 & { I.w.w.w.w.w.w.w.7.w.w.w.w.w.w.w.w.w.w.w.w.w.w.w.w.w.w.w.8.w.w.w.w.w.w.w.w.w.w.w.w.w.w.w.w.w.w.w.w.w.w.:.4 1 E V.F.",
"S.( G G 9 * [ I.w.w.w.w.w.w.w.w.w.w.w.w.w.w.w.w.w.w.w.w.w.w.w.w.w.w.w.w.w.w.w.w.w.w.w.w.w.w.w.7.w.w.w.w.w.w.w.w.w.w.w.<.5 + H A.",
"S.j = > , O [ e.w.w.w.w.w.w.w.w.w.w.w.w.w.w.w.w.w.w.w.w.w.w.w.w.w.w.w.w.w.w.w.w.w.w.w.7.w.w.w.w.w.w.w.w.w.w.w.w.w.w.w.6.4 X f B.",
"A.o.F m 8 ] v.0.w.w.w.w.w.w.w.w.w.8.w.w.w.w.w.w.w.w.w.w.w.w.w.w.w.w.w.w.w.w.w.w.w.w.w.w.w.w.w.w.w.w.w.w.w.w.w.w.w.w.w.w.} b &.Q.",
"F.W.+X3.> 4X&X6.w.w.w.w.7.w.w.w.w.w.w.w.w.w.w.w.w.w.w.w.w.w.w.w.w.w.w.w.w.w.w.w.w.w.w.w.w.w.w.w.w.w.w.w.w.w.w.w.w.w.w.I.>.#.b.<X",
"G.P.+X3.y `.*X7.w.w.w.w.w.w.w.w.w.w.w.w.w.w.w.w.w.w.w.w.w.w.w.w.w.w.w.w.w.w.w.w.w.w.w.w.w.w.w.w.w.w.w.w.w.w.w.w.w.w.U. Xd O C ;X",
"F.n.e.w.1.I.I.7.w.w.w.w.w.w.w.w.w.w.w.w.w.w.w.w.8.w.w.w.w.w.w.w.w.w.w.w.w.w.w.w.w.w.w.w.w.w.w.w.w.w.w.w.w.w.w.w.w.w.U..Xa   N ;X",
"A.I p V e.w.8.w.w.w.w.w.w.w.w.w.w.w.w.w.w.w.w.w.w.w.w.w.w.w.w.w.w.w.w.w.w.w.w.w.w.w.w.w.w.w.w.w.w.w.w.w.w.w.w.w.w.w.<.D 8 D P.<X",
"L.o.y 1  .7.w.w.w.w.w.w.w.w.w.w.w.w.w.w.w.w.w.w.w.w.w.w.w.w.w.w.w.w.w.w.w.w.w.w.w.w.w.w.w.w.w.w.w.w.w.w.w.w.w.w.w.e.:.# , ^ ).:X",
">X:X*., -  .7.w.w.w.w.w.w.w.w.w.w.w.w.w.w.w.w.w.w.w.w.w.w.w.w.w.w.w.w.w.w.w.w.w.w.w.w.w.w.w.w.w.w.w.w.w.w.w.w.w.w.w.>.4 , , ^ :X",
"<X1Xj.9 7 : } e.w.w.w.w.w.w.w.w.w.w.w.w.w.w.w.w.w.w.w.w.w.w.w.w.w.w.w.w.w.7.w.w.w.w.w.w.w.w.w.w.w.w.w.w.w.w.w.w.w.w.w.5.p + C ;X",
"K.K.o.9 8 + [ e.w.w.w.w.w.w.w.w.w.w.w.w.w.w.w.w.w.w.w.w.w.w.w.w.w.w.w.w.w.w.w.w.w.w.w.w.w.w.w.w.w.w.w.w.w.w.w.w.w.w.r.|.:.#.>.J.",
"V.i.l , > ] /.w.w.w.w.w.w.w.w.w.w.w.w.w.w.w.w.w.w.w.w.w.w.7.w.w.w.w.w.w.w.w.w.w.w.w.w.w.w.w.w.w.w.w.w.w.w.w.w.w.q.w.U.#XR.e.n.A.",
"G.Y S A ~ =XOX0.w.w.w.w.w.w.w.w.w.w.w.w.w.w.w.w.w.w.w.w.w.w.w.w.w.w.w.w.w.w.w.w.w.w.w.w.w.w.w.w.w.w.w.w.w.w.w.w.w.w.8.2.$.#.p.A.",
"G.x.7.}.2X}.0.w.w.w.w.w.w.w.w.w.w.w.w.w.w.w.w.w.w.w.w.w.w.w.w.w.w.w.w.w.w.w.w.w.w.w.w.w.w.w.w.w.w.w.w.w.w.w.w.w.w.e.>.3 # O t D.",
"F.c.w.|.3X}.0.w.w.w.w.w.8.w.w.w.w.w.w.w.w.w.w.w.w.w.w.w.w.w.w.w.w.w.w.w.w.w.w.w.w.w.w.w.w.w.w.w.w.7.w.w.w.w.w.w.w.w.0.:.4 O g D.",
"F.I p V  XI.0.w.w.w.w.w.w.e.q.w.w.w.0.w.w.e.w.e.w.w.w.w.w.0.w.w.w.w.w.w.w.w.w.w.w.w.w.w.w.w.w.w.w.w.w.w.0.e.e.w.w.w.e.q.w o g F.",
"F.g @ w 6.e.w.w.0.w.OX/.[ } 6.e.0.I.#X&Xy.[ { { 5.e.e.e.w.U.].I. .5.e.w.w.w.w.w.e.w.w.w.w.0.w.e.e.r.w..X&X(. .6.U.Y.9.{ 4 & j A.",
"F.g o < ,.:.6.I.[.}.=X] & : ..6.w.{.`.'./ # # * n :.:.:.6.9./.4.1 V >.>.w.I.U.8.>.w.w.w.w.I.U.5.$.>.w.-X5X_.: %.(.@Xy.0 r r L S.",
"S.h # : $ # [ .X3X2X~ > 7 7 - } e.1.a > 8 7 7 0 1 % # < :.V # : 6 : * e 7.|..X*.5 >.w.7.I..X.XN # w <..X#X/.: ) ' ` ` ` ` ` =.G.",
"S.M.s.Q # O : F }.}.A , 9 7 , 1 V w.3.3.m > z g.s.K O # ;.b o + 6 = o w 6.m a 0 1 5 5 } >.d a 8 , , p 1.T.$.# > ; ; ) ` ' j.C.G.",
"S.S.H.s.# O @ p q.w.Z ; s Q Q u e r.+X+XF = G N.~.u.o # ;.b % T Q W t w >.< t R Q T H +.#.O o k i.P + #.Y.$.+ o o & r ` j.N.G.G.",
"A.A.D.M.h g f I c.x.Y M Q A.S.W I n.W.W.o.j ( V.D.a.g h k.@.T A.D.A.u.J k.J u.A.D.D.B.Z.z.h g a.H.M.H O.n.p.g H g j L i.N.S.G.G.",
"S.A.A.A.A.A.A.A.A.F.A.A.A.S.S.S.G.G.G.G.F.F.A.A.A.A.A.A.A.A.A.S.A.A.A.A.S.A.A.A.A.A.A.S.A.A.A.S.S.S.A.A.V.G.V.V.G.V.G.G.G.G.G.G."
};
