/* XPM */
static char *result[] = {
/* columns rows colors chars-per-pixel */
"64 64 244 2 ",
"   c #0C0A0D",
".  c #171817",
"X  c #0C0C11",
"o  c #1D241E",
"O  c #39211E",
"+  c #38341B",
"@  c #21211F",
"#  c #1E2922",
"$  c #252B25",
"%  c #292A28",
"&  c #3A2522",
"*  c #3C2B25",
"=  c #3D2D29",
"-  c #332926",
";  c #273428",
":  c #3E332C",
">  c #32302C",
",  c #3D3532",
"<  c #363C34",
"1  c #371E1B",
"2  c #46161A",
"3  c #442924",
"4  c #42332C",
"5  c #46352D",
"6  c #573C2F",
"7  c #433C32",
"8  c #4B3B31",
"9  c #523D32",
"0  c #562625",
"q  c #413D1C",
"w  c #2E4531",
"e  c #394938",
"r  c #37543A",
"t  c #2E4931",
"y  c #54451F",
"u  c #454334",
"i  c #4A4436",
"p  c #4A443C",
"a  c #494D3A",
"s  c #474A38",
"d  c #544235",
"f  c #594436",
"g  c #524539",
"h  c #5A4638",
"j  c #584B3C",
"k  c #4A513C",
"l  c #4D5E3F",
"z  c #574C24",
"x  c #655032",
"c  c #52653B",
"v  c #72672E",
"b  c #3D454B",
"n  c #395F43",
"m  c #3E6847",
"M  c #4D4B42",
"N  c #434542",
"B  c #4B5A41",
"V  c #545447",
"C  c #425256",
"Z  c #435559",
"A  c #455A5C",
"S  c #4A5A5A",
"D  c #5B5A50",
"F  c #594D41",
"G  c #735946",
"H  c #6A5B51",
"J  c #4A6646",
"K  c #53664A",
"L  c #4B754C",
"P  c #47764C",
"I  c #56764D",
"U  c #596856",
"Y  c #4B7B52",
"T  c #597D54",
"R  c #577356",
"E  c #61674A",
"W  c #69685E",
"Q  c #61775A",
"!  c #756451",
"~  c #445F66",
"^  c #486765",
"/  c #576866",
"(  c #4F786C",
")  c #587C6E",
"_  c #486B74",
"`  c #49737A",
"'  c #557679",
"]  c #516E71",
"[  c #706B64",
"{  c #68766A",
"}  c #7D7771",
"|  c #687C77",
" . c #A41A25",
".. c #976724",
"X. c #C74329",
"o. c #8F725C",
"O. c #91745D",
"+. c #866D57",
"@. c #917A64",
"#. c #847A75",
"$. c #9A4D4F",
"%. c #D06E63",
"&. c #C35359",
"*. c #4E8254",
"=. c #5D8A5B",
"-. c #588658",
";. c #56925D",
":. c #5C925F",
">. c #608E5F",
",. c #62955F",
"<. c #5C9A62",
"1. c #598677",
"2. c #5C9B7D",
"3. c #58846E",
"4. c #669C64",
"5. c #739B6A",
"6. c #769875",
"7. c #6E9077",
"8. c #5DA268",
"9. c #62A367",
"0. c #65A469",
"q. c #68A66B",
"w. c #64AB6C",
"e. c #6AAB6D",
"r. c #68A567",
"t. c #6BB26E",
"y. c #6DA970",
"u. c #7BA97C",
"i. c #6CB372",
"p. c #6EBC76",
"a. c #67B070",
"s. c #70BE77",
"d. c #73BD7A",
"f. c #79B97D",
"g. c #73AB66",
"h. c #6FC276",
"j. c #6DC37C",
"k. c #72C37A",
"l. c #78C57F",
"z. c #75C97D",
"x. c #74C679",
"c. c #F2CA3D",
"v. c #888E74",
"b. c #85A971",
"n. c #9CCA6A",
"m. c #F6CF41",
"M. c #FCDB6E",
"N. c #497A86",
"B. c #547C84",
"V. c #4B8895",
"C. c #599190",
"Z. c #6E8D86",
"A. c #5FA383",
"S. c #62AC87",
"D. c #67B78D",
"F. c #6ABC92",
"G. c #79B589",
"H. c #4D96A7",
"J. c #589CAA",
"K. c #519EB1",
"L. c #4D9EB3",
"P. c #4FA3B7",
"I. c #4FA4B8",
"U. c #4FA9BE",
"Y. c #52A3B6",
"T. c #50A5B8",
"R. c #52AABC",
"E. c #5DB0B1",
"W. c #64B8B9",
"Q. c #73BCA6",
"!. c #609BA7",
"~. c #7BC582",
"^. c #7BC983",
"/. c #78CD82",
"(. c #7DD085",
"). c #78C09F",
"_. c #69C092",
"`. c #75C5B2",
"'. c #4FADC4",
"]. c #979689",
"[. c #8E8D86",
"{. c #86B787",
"}. c #89B390",
"|. c #A5A289",
" X c #A8A58B",
".X c #ACA799",
"XX c #B6B39A",
"oX c #B8B59D",
"OX c #AAAF93",
"+X c #BDBAA3",
"@X c #BCB8AD",
"#X c #B8B5A5",
"$X c #BBBBB3",
"%X c #A9ABA3",
"&X c #A19E85",
"*X c #C2BEB8",
"=X c #C1BEAF",
"-X c #D3958F",
";X c #85CA8C",
":X c #8BCA92",
">X c #8BC790",
",X c #93CB98",
"<X c #94D19C",
"1X c #93D799",
"2X c #8BCD92",
"3X c #84DABE",
"4X c #8ED2A4",
"5X c #A3D5A9",
"6X c #B9D6BC",
"7X c #B4C5B2",
"8X c #91E6BE",
"9X c #93E9BF",
"0X c #8FE4BF",
"qX c #C6C3AC",
"wX c #CAC8B8",
"eX c #D1CEB7",
"rX c #D6D3BC",
"tX c #D8D5BE",
"yX c #CCD1BE",
"uX c #FBEAAA",
"iX c #D9C580",
"pX c #91E8C1",
"aX c #BED9C1",
"sX c #DAD7C2",
"dX c #DCDAC6",
"fX c #CFD8D0",
"gX c #D3DCD4",
"hX c #CDD1C3",
"jX c #E1DECB",
"kX c #D7E8CA",
"lX c #D9E9CC",
"zX c #DBE5DA",
"xX c #C9E0CD",
"cX c #E6E4D1",
"vX c #EEECDA",
"bX c #EBE8D5",
"nX c #F1EFDD",
"mX c #F4F1DF",
"MX c #E7E6D2",
"NX c #F5F3E2",
"BX c #F9F6E5",
"VX c #FDFBEA",
"CX c #FBF8E7",
"ZX c #F3F0EF",
/* pixels */
"I.P.I.I.P.P.P.P.P.P.T.T.T.T.L.T.Y.Y.T.I.I.I.P.P.I.T.T.T.P.P.P.P.P.P.Y.T.Y.I.P.I.T.P.P.P.P.P.P.P.P.P.P.P.P.P.P.P.P.P.T.T.T.I.I.P.",
"I.I.T.H.A Z C ( D.D.) U ' L.] S ( F.).Q.E.P.P.Y.V.] Z A A.1.C ~ L.` C ^ S.^ V.R.H.~ C 1.A.A A V.H.U Z A.F.2.A Z C N.T.T.T.P.I.I.",
"P.T.U.V.: & O l h.h.K 6 F ' F 3 J l.1X<XZ.] Z.' W N & 4 r.I O : ] N & a t.u b ` ] = & I 9.* O S / 9 = 4./.4.= & O Z K.R.U.U.U.P.",
"W.R.J.C.g d i Q :X:XE 6 h h d i T k.u.u.K 8 G G h 5 = 4 0.I * 4 9 5 & k i.U V g d a s =.e.V V g 9 d k q.(.4., a a S ' V.V.V.H.P.",
"0XW.Z.@.o.O.5.,XfXfX[ 8 h g 7 >./.e.M N g h h h 8 7 4 7 w.T 4 5 g 8 : B h.:X<X6.a a.s.s.~.<X,XQ : a i.<X5Xu.7 q.x.=.7 4 , : A P.",
"3X7.F j 9 b.~.~.>X>X$X#.3 7 >.s.k.G.$X$X} = 4 4 T w.0.q.s.G.G.u.i T w.e.x.l.^.d.e.p.z.k.k.~.~.i.0.e.s.6XgX%Xu a.x.f.7.4 * * Z P.",
"9XQ 3 i ) f.l.k.h.j.fX[.& : e.z.j.(.zXZX[.1 & * >./.z.x.x.;X1X{.u >./.x.k.k.k.k.k.k.k.k.k.k.k.k.x.x.z.fXZX@X5 y.x.;X;X-., O Z P.",
"`./ & k x.l.x.x.k.x.5X}.B K i.x.p.~.6X6X[.B J K 0.z.k.k.h.~.2X~.R 0.x.k.k.k.k.k.k.k.k.k.k.k.k.k.k.k.k.5XaX}.U y.j./.>X,X>.l ( P.",
"P.Z & p q.e.s.k.k.k.k.k.k.k.k.k.k.k.k.k.k.k.s.k.k.k.k.k.k.k.k.k.k.k.k.k.k.k.k.k.k.k.k.k.k.k.k.k.k.k.k.k.k.k.k.s.x.h.>XgX:Xh.D.P.",
"P.A = , u 7 >.z.k.k.k.k.k.k.k.k.k.k.k.k.k.k.k.k.k.k.k.k.k.k.k.k.k.k.k.s.p.h.k.x.k.k.k.k.k.k.k.p.k.k.k.k.k.k.k.k.k.h.>XfX:Xh.D.P.",
"P.2.<.4.b.%X}.k.k.k.k.k.k.k.k.k.k.k.k.k.k.k.k.k.k.k.k.k.k.k.k.k.k.k.z.0.r w :.x.k.k.k.k.k.k.k.k.s.k.k.k.k.k.k.k.k.k.i.W E E ) P.",
"P.F./.(.5XzX5Xh.k.k.k.k.k.s.k.k.k.k.d.k.k.k.k.k.k.k.k.k.k.s.k.k.k.k.z.<.. X Y z.k.k.k.k.k.k.k.k.k.k.k.k.k.k.k.k.k.x.q.8 9 9 U P.",
"P.A.4.e.<X6X,Xk.k.k.k.k.k.k.k.k.k.k.k.k.k.k.k.k.k.k.k.s.k.k.k.j.k.k.z.4.3 2 J :.<.p.k.x.k.k.k.k.k.k.k.k.k.k.k.k.x.z.y.j h V ' T.",
"P.A 4 k i.k.k.k.k.k.k.k.k.k.k.k.k.k.k.k.k.k.k.k.k.k.k.k.k.k.k.k.k.k.x.5. . .0 # w i.k.k.k.k.k.k.k.k.k.k.k.k.k.k.k.x.y.j f ] L.T.",
"T.S 6 8 k e.k.k.k.k.s.k.k.k.k.k.k.k.k.k.s.k.k.k.k.k.k.k.k.k.k.k.k.k.z.b. .0 J w.w.k.k.k.k.k.k.k.k.k.k.k.k.k.k.k.k.z.q.7 9 F ] Y.",
"T.C./ 9 = 0.z.k.k.k.k.k.k.k.k.k.k.k.k.k.k.k.k.k.k.k.k.k.k.k.k.k.k.P t K -X%XR r m p.x.k.k.k.k.k.k.k.k.k.k.k.k.k.k.k.p.=.g 3 S L.",
"T.V.S g Q i.x.x.k.k.k.k.k.k.k.k.k.k.k.s.k.k.k.k.k.k.k.k.z.z.~.p.*.U D [.NXVX.XW W Y a./.z.k.k.k.k.s.k.k.k.k.k.k.k.k.z.z.T B 3.W.",
"P.C O V ,Xl.k.k.k.k.k.k.k.k.k.k.k.k.k.k.k.k.k.k.k.k.k.s.w.9.8.<.N $XVXNXNXNXnXCXfXV *.0.w.k.k.k.k.k.k.k.k.k.k.k.k.k.s.a.d.l.2X9X",
"T.S * V ,X^.k.k.k.k.s.k.k.k.s.k.k.k.k.k.k.k.k.k.k.k.k.s.e # # e hXmXNXNXNXNXNXNXmXjXD @ r p.x.k.k.k.k.k.k.k.k.k.k.k.q.s f.1X4XpX",
"3XS.4.e.~.k.k.k.k.k.k.k.k.k.k.k.k.k.k.k.k.k.k.k.k.k.k.k.#X@X@XqXnXBXNXNXNXNXNXNXNXBXhX@X].r w.k.k.k.k.k.s.k.k.k.k.z.0.7 u.1X).W.",
"pX5.I =.s.k.k.k.k.k.k.k.k.k.k.k.k.k.k.k.k.k.k.k.k.k.h.~.lXVXCXBXBXNXNXNXVXVXBXNXNXNXBXVX=X$ 9.z.k.k.k.k.k.k.k.k.k.x.e.a U Q 1.T.",
"pX' , a s.x.k.k.k.k.k.k.s.k.k.k.k.k.k.k.k.k.k.d.k.k.k.k.lXBXNXNXNXNXBXMX@X%XdXZXNXNXBXVX@X$ 9.x.k.k.k.k.k.k.k.k.k.z.y.x 8 5 S Y.",
"pXW._ s e.k.k.k.k.k.k.k.k.k.k.k.k.k.k.k.k.k.k.k.k.k.k.l.lXBXNXNXNXNXVX*X% . ].VXNXNXNXVX@X$ 0.z.k.k.k.k.k.k.k.k.k.z.y.j G G | Y.",
"pXW.` 9 a e.k.k.k.k.k.k.k.k.k.k.k.k.k.k.k.k.k.k.k.k.k.~.lXBXNXNXNXNXVXqX@ . ].VXNXNXNXVX@X$ 9.z.k.k.d.k.k.k.k.k.s.z.y.F G G { Y.",
"W.R.` j 6.d.k.k.k.k.k.k.k.k.k.k.k.z.z.z.k.z.z.k.k.k.k.k.kXBXNXNXNXNXCX*X. X ].VXNXNXBXVX@X$ 9.z.k.k.k.k.k.k.k.k.k.z.q.i h { J.P.",
"I.N.b M <X^.s.k.k.k.k.k.k.k.k.z.0.P Y P P P Y p./.z.k.~.kXBXNXNXNXNXZXsX} [ 7XCXNXmXuXuXiXv L 9.z.k.k.k.k.k.k.k.s.z.0.7 5 S N.P.",
"Y.^ u R :X~.k.k.k.k.k.k.k.x.h.a.L > > > > > < =.4.w.h.l.kXBXNXNXNXNXNXNXBXBXBXNXNXmXM.c.m.m.x L a.k.k.k.k.s.k.k.k.z.0.4 * & Z I.",
"T.S.t.i.s.k.k.k.k.k.k.k.h.s.l.J V |.|.|.|.|.].< $ L l.~.lXNXNXNXNXNXNXNXmXNXNXNXmXmXM.c.m.m.c.v n k.k.k.k.k.k.k.k.z.q.7 4 = ~ P.",
"P.^ a M B e.k.k.k.k.k.z.<.r 7XhXhXcXcXcXcXcXjXwX$XyXlXlXvXBXNXNXNXNXNXNXNXNXNXNXNXmX%.X...z b.g.0.k.k.k.k.k.k.k.k.k.d.q.0.q.S.P.",
"P.C O * : w./.x.k.k.k.z.<.% hXVXBXNXNXBXNXBXBXBXCXBXBXBXNXNXNXNXNXNXmXNXNXNXNXNXNXmX&. . .o 8./.k.k.k.k.k.k.k.k.k.k.i.T I I ) P.",
"T.` e 5 8 T i.k.k.k.k.z.=.> hXCXNXNXNXNXNXNXNXNXNXNXNXNXNXBXNXNXNXNXNXNXNXNXNXNXNXmX-X%.$.. 0.z.k.k.k.k.k.k.k.k.k.k.0.: & & C P.",
"E.T.' 9 g i =.z.k.s.k.z.;.% yXBXNXNXNXNXNXNXNXNXNXmXnXnXnXnXvXNXnXNXNXNXNXNXmXNXmXmXvXZX#X$ 8.z.k.k.k.k.k.k.k.k.k.z.r.7 4 , ~ P.",
"3XW._ * 7 6.~.k.k.k.k.z.;.% eXCXmXBXmXBXNXNXNXmXmXbXtXtXtXtXdXtXtXvXNXNXNXNXNXNXNXNXNXCX@X% 0.z.x.x.k.k.k.k.k.k.k.x.e.j 9 ] H.Y.",
"pX1., & : {.(.k.k.k.k.z.;.> hXVXNXmXBXmXNXNXNXmXBXbXtXeXtXrXrXeXrXbXNXNXNXNXNXmXNXNXNXCX@X$ 0.x.j.x.k.k.k.k.k.k.k.k.q.i 5 _ T.T.",
"pX6.I I T G.^.k.k.k.k.z.;.> hXCXNXBXmXBXBXNXmXBXBXMXrXrXtXtXrXrXrXvXNXNXNXNXNXNXNXNXBXCX@X% 9.z.k.k.k.k.k.k.k.k.k.z.0.= = N N.T.",
"`.G.r.9.r.p.k.k.k.k.k.z.;.% =XnXvXvXvXvXvXvXvXvXvXjXrXtXtXeXrXrXrXcXvXnXNXNXNXNXNXNXvXvX%X$ 9.z.k.k.k.k.k.k.k.k.k.k.a.B k a ^ T.",
"R.^ , 7 7 0.z.k.k.k.k.z.<.% v.qXtXtXtXtXtXtXtXtXtXtXrXrXrXrXrXrXrXrXrXjXmXNXNXNXmXnXoX|.} ; 9.z.k.k.k.k.k.p.k.k.k.k.k.d.i.t.S.T.",
"R.H.V._ 7 r.z.k.k.k.k.k.p.<.e [.sXrXrXrXrXrXrXrXtXtXrXrXrXrXrXrXrXrXrXjXmXNXNXBXbX=XV - r 4.p.k.k.k.k.k.k.k.k.k.k.k.~.:XU u ^ T.",
"U.U.I.V.7 q.z.k.k.k.k.k.j.p.% v.kXrXrXrXrXrXrXrXrXrXrXrXrXrXrXtXrXqXoXqXmXNXdXqX#XD J P ;.k.z.k.k.k.k.k.k.k.k.k.k.h.^.<XB O C P.",
"I.W.W.C.p T a.k.k.k.k.k.~.i.; v.dXrXrXrXrXrXrXrXrXrXrXrXrXrXrXtXrXXX].oXmXBXeX Xv.$ ;./.z.k.k.k.k.k.k.k.k.k.k.k.k.k.d.6.j N ` P.",
"I.`.4X}.h 4 T ~.k.k.s.k.k.i.t } qXtXtXtXtXtXtXrXrXrXrXrXrXrXtXeXeXoXXXqXmXvX#Xv.v.< ;.x.k.k.k.k.k.k.k.k.k.k.k.k.k.k.e.a 9 ] H.T.",
"P.| ! ! 9 4 -./.k.k.k.k.k.k.p.r W eXeXrXeXeXtXeXrXrXeXrXrXrXtXeXXXtXvXvXvX+XD o < 9.h.x.k.k.k.s.k.k.k.s.k.k.k.k.k.k.k.a.a : ~ I.",
"P.~ 5 9 f & T z.k.k.k.k.k.k.k.w.I M M M M W XXXXXXXXXXXXXXXXXXoXtXvXBXbX#XD J ;.<.k.x.k.k.k.k.k.k.k.k.k.k.k.k.k.k.k.x.s.a 1 C P.",
"P.1.Q E 9 } G.x.k.k.k.k.k.k.k./.*.  X X   , |.|.|.|.|.|.|.|.|. XvXBXBXMX|.$ P (.z.k.k.k.k.k.k.k.k.k.k.k.k.k.k.k.k.k.j.p.=.I 2.`.",
"R.).1Xu.8 *X5X~.k.k.k.k.k.k.k.z.;.w w w ; V OX+X+X+X+X+X+X+X#XqXvXCXCXjX#.e -.k.k.s.k.k.k.k.k.k.k.k.k.k.k.k.k.k.k.k.z.~.y.4.G.9X",
"T.).1Xu.M $X5Xj.k.k.k.k.k.k.k.k.s.d.p.s.h.f.|.dXvXbXvXvXvXvXvXvXvXvXmX7Xw 4.z.k.k.k.k.k.k.k.k.k.k.k.k.k.k.k.k.s.k.k.~.,XV - R 8X",
"I.F./.s.e.~.~.k.k.k.k.d.k.k.k.k.k.k.k.k.~.<.e |.+XoXoXoXXXoXoXoXoXoX#XOXr.h.x.k.k.k.k.k.k.s.k.k.k.k.k.k.k.k.k.k.k.k.~.,XB O U pX",
"P.( B T k.k.k.k.k.k.k.k.k.k.k.k.k.k.j.j.~.;.. 7 M M p N p a p p a M p U x.x.k.k.k.k.k.k.k.k.k.k.k.k.d.k.k.k.k.k.k.x.i.R d W Q.pX",
"W.1.M i =.s.x.k.k.k.k.k.k.k.k.k.k.k.k.k.k.g.z . X # r r r r r r r o   o Y p.k.k.k.k.k.k.k.k.k.k.k.k.k.k.k.k.k.k.k.k.0.: 9 { }.pX",
"9X8X6.9 7 >.s.k.k.k.k.k.k.k.k.k.k.k.k.k.j.n.c.z + c a.j.x.k.k.j.x.t . . + -.p.k.k.k.k.k.k.k.k.k.k.k.k.k.k.k.k.k.k.k.e.k i 6 { pX",
"pXpXZ.h d 7 =.z.k.k.k.k.k.k.k.k.k.k.k.k.j.n.m.c.m...t p.k.k.k.k.h.r . + ..+ Y /.k.k.k.k.k.k.k.k.k.k.k.k.k.k.k.k.k.k.k.i.k * R pX",
"W.W.' x h * -.k.k.k.s.k.k.k.k.k.p.k.k.k.z.4.y y y c <.k.k.k.k.k.x.9.<.*.q *.i.k.k.k.k.k.k.s.k.k.k.k.k.k.k.k.k.k.k.k.~.2Xy.,.S.W.",
"P.B.D 9 5 #.{.p.k.k.s.k.s.k.k.k.k.k.k.k.j.w.m J m ;.z.k.k.k.k.k.x.x.z.i.L i.z.k.k.k.k.s.k.k.k.k.k.k.k.k.k.k.k.k.k.x.^.1X;Xz._.P.",
"I.) E E [ 7X<Xk.k.k.k.k.k.k.k.k.k.k.k.k.k.k./.z.j./.k.k.k.k.k.k.h.x.x.x.z.k.k.k.k.k.k.k.k.k.k.k.k.k.k.k.k.k.s.k.k.k.f.u.4.4.2.P.",
"P.D.p.:XfX>Xk.k.k.k.k.k.k.k.k.k.k.k.k.k.k.k.k.k.j.j.x.x.k.k.k.k.k.x.j.x.k.k.k.k.k.k.k.k.k.k.k.k.k.s.k.k.k.k.k.k.k.k.e.i : = A P.",
"P.F.h.:XgX>Xs.j.k.k.k.k.k.k.k.k.k.k.k.k.k.k.k.k.x.j.x.j.k.k.k.k.k.x.x.j.k.k.k.k.k.k.k.k.k.k.k.k.k.k.k.k.k.k.k.k.k.k.h.w.a & Z P.",
"Y.( B T ,X~.k.x.k.k.p.k.k.~.j.x.j.x.h.h.j.x.k.l.k.x.k.k.x.j.k.s.k.k.x.k.k.k.k.k.x.k.k.k.k.k.k.k.k.k.k.k.h.x.k.x.k.x.x.x.k O A Y.",
"Y.C & a p.z.x.h.h.k.,X{.-.=.p.k.k.^.5X5Xu.-.-.-.i.z.x.x.j.~.;X~.>.i.z.k.k.k.k.k.k.k.k.k.k.k.k.z.z.z.k.,X5X}.=.p.^.(.G.-.i 5 S P.",
"P.Z & a 4.0.p.~.>X>X7X#.* 7 4.p.k.{.$X*X} * 4 4 T 0.w.e.p.f.{.6.i T e.e.k.~.^.d.e.h.x.x.k.~.^.i.0.e.x.6XzX%Xu 5.{.>Xb.9 F x / Y.",
"P.A : , 4 , -.,XgXfX[ 8 f d 7 -.z.i.M p g f h j p 7 4 7 q.T 4 7 g 7 : B d.:X<X6.a e.s.h.~.,X<XU : a e.,X5XG.7 +.@.@.@.o.O.O.7.Y.",
"I.H.V.( : = , Q >X>XE 6 h h 9 i T d.u.u.U 9 G V.V.^ * = 0.I & 4 d 5 & k i.U k j i a a ;.e.V V g 9 8 B y.^.5.: 8 9 9 $.O.@.Z.!.T.",
"I.U.'.V.: * & l h.p.E 6 F ' ' N c l.1X1XQ 5 ! J.'.N.& : 9.I < _ ' ` b a t.u b _ ' _ ^ 1.9.* O S B./ = 4.z.4.= & = 5 x O.[.K.T.T.",
"I.I.R.H.A Z C ( D.D.) / ' L.T.N.( F.).).1.S | K.U.V.C A A.3._ P.R.P.N.^ S.^ N.P.U.T.H.E.2.A Z V.R.H.~ 2.F.A.S ~ Z ~ / B.!.I.T.T.",
"I.P.Y.Y.P.P.Y.P.P.I.T.T.L.P.P.P.T.T.T.T.Y.Y.P.P.P.P.P.I.P.P.P.I.P.P.P.P.Y.P.P.P.T.T.T.P.P.P.P.P.I.I.P.Y.L.T.L.L.K.K.I.T.I.T.T.T."
};
