/* XPM */
static char *result[] = {
/* columns rows colors chars-per-pixel */
"64 64 112 2 ",
"   c #4FA4B8",
".  c #4EA3B8",
"X  c #4DA2B8",
"o  c #53A8B9",
"O  c #5EB3BA",
"+  c #5EB4BA",
"@  c #54A9B9",
"#  c #61B7BA",
"$  c #8DE3BF",
"%  c #8FE5C0",
"&  c #8EE4C0",
"*  c #63B9BA",
"=  c #62B8BA",
"-  c #91E7C0",
";  c #93E9C0",
":  c #92E8C0",
">  c #65BABB",
",  c #4DA1B8",
"<  c #4A9FB7",
"1  c #60B6BA",
"2  c #91E6C0",
"3  c #63B8BA",
"4  c #4CA1B8",
"5  c #52A7B8",
"6  c #64B9BB",
"7  c #67BCBB",
"8  c #66BCBB",
"9  c #73C8BC",
"0  c #74CABC",
"q  c #67BDBB",
"w  c #5DB3BA",
"e  c #59AEB9",
"r  c #8BE1BF",
"t  c #94EAC0",
"y  c #78CEBD",
"u  c #95EBC0",
"i  c #96EDC1",
"p  c #7ACFBD",
"a  c #6EC4BC",
"s  c #72C8BC",
"d  c #72C7BC",
"f  c #71C6BC",
"g  c #83D9BE",
"h  c #75CABD",
"j  c #71C7BC",
"k  c #64BABB",
"l  c #73C9BC",
"z  c #88DEBF",
"x  c #74C9BC",
"c  c #56ABB9",
"v  c #75CBBD",
"b  c #97EDC1",
"n  c #96ECC0",
"m  c #8AE0BF",
"M  c #66BBBB",
"N  c #79CFBD",
"B  c #55AAB9",
"V  c #76CCBD",
"C  c #7BD1BD",
"Z  c #7BD0BD",
"A  c #7CD2BD",
"S  c #50A5B8",
"D  c #81D6BE",
"F  c #50A6B8",
"G  c #8CE2BF",
"H  c #7FD5BE",
"J  c #58ADB9",
"K  c #7FD4BE",
"L  c #58AEB9",
"P  c #90E6C0",
"I  c #7DD2BD",
"U  c #51A6B8",
"Y  c #5CB1BA",
"T  c #8CE1BF",
"R  c #80D5BE",
"E  c #5DB2BA",
"W  c #5FB4BA",
"Q  c #5AAFB9",
"!  c #6CC1BB",
"~  c #84DABE",
"^  c #82D8BE",
"/  c #85DBBE",
"(  c #8EE4BF",
")  c #83D8BE",
"_  c #96ECC1",
"`  c #4EA2B8",
"'  c #93EAC0",
"]  c #6EC3BC",
"[  c #57ACB9",
"{  c #78CDBD",
"}  c #8ADFBF",
"|  c #69BFBB",
" . c #60B5BA",
".. c #57ADB9",
"X. c #53A8B8",
"o. c #8FE4C0",
"O. c #5BB0B9",
"+. c #82D7BE",
"@. c #84D9BE",
"#. c #7CD1BD",
"$. c #6FC4BC",
"%. c #6FC5BC",
"&. c #80D6BE",
"*. c #94EBC0",
"=. c #7DD3BE",
"-. c #6DC2BC",
";. c #6ABFBB",
":. c #87DCBF",
">. c #7AD0BD",
",. c #79CEBD",
"<. c #4FA3B8",
"1. c white",
/* pixels */
"                                                                                                                                ",
"                                                                                                                                ",
"                                          . X X X X X X X X X X X .                                                             ",
"                                        . o O + O O O O O O O O O @ .                                                           ",
"                                        X # $ % % % % % % % % % & * X                                                           ",
"                                        X = - ; ; ; ; ; ; ; ; ; : > X                                                           ",
"                  X , X X X X X X X X X < 1 2 : : : : : : : : : - 3 < X X X X X X X X X X X X 4 X                               ",
"              . 5 6 7 8 8 8 8 8 8 8 8 8 > 9 - : : : : : : : : : : 0 > 8 8 8 8 8 8 8 8 8 8 8 8 q w                               ",
"              X e r ; : : : : : : : : : : : : : : : : : : : : : : : : : : : : : : : : : : : : t y .                             ",
"              X e r ; : : : : : : : : : : : : : : : : : : : : : : : : : : : : : : : : : : : : u y .                             ",
"              X e $ u t t t t t t t t t t t t t t t t t t ; : : : : : : : : : : : t t t t t t i p .                             ",
"              . @ a s d d d d d d d d d d d d d d d d d f g ; : : : : : : : : ; $ h j d d d d 9 k                               ",
"                  X X X X X X X X X X X X X X X X X X X 4 l t : : : : : : : : t z @ 4 X X X X X .                               ",
"                                                        . x t : : : : : : : : t z c .                                           ",
"                                                        . x t : : : : : : : : t z c .                                           ",
"                                                        . v b t t t t t t t t n m c .                                           ",
"                                                        . M p y y y y y y y y N s o .                                           ",
"                                                            . . . . . . . . . .                                                 ",
"                                                                                                                                ",
"                                                                                                                                ",
"                                                                                                                                ",
"                                                                                                                                ",
"                                                                                                                                ",
"                                                                                                                                ",
"              . B V C Z Z Z Z Z Z Z Z Z A a S                                 . B V C Z Z Z Z Z Z Z Z Z A a S                   ",
"              X e $ n t t t t t t t t t b D F                                 X e $ n t t t t t t t t t b D F                   ",
"              X e G t ; ; ; ; ; ; ; ; ; u H S               . . . . . . . . . X J r ; : : : : : : : : : t K S . . . . . .       ",
"              X L z P % % % % % % % % % - I S             U 5 5 5 5 5 5 5 5 5 U Y T ; : : : : : : : : : t R @ 5 5 5 5 5 5 S     ",
"                U E + O O O O O O O O O W Q             . ! ~ g g g g g g g g ^ / P : : : : : : : : : : ; ( g ) g g g g ~ 8 X   ",
"                  X X X X X X X X X X X X X             . v _ t t t t t t t t t t : : : : : : : : : : : : ; t t t t t t n a X   ",
"                                            . ` ` ` ` ` 4 l t : : : : : : : : : : : : : : : ; t ' ' ' ' ' ' ' ' ' ' ' ' u ] X   ",
"                                          U [ [ [ [ [ [ c { t : : : : : : : : : : : : : : - r } m m m m m m m m m m m m r | X   ",
"                                        X  .z m m m m m } & : : : : : : : : : : : : : : ; $ # c [ [ [ [ [ [ [ [ [ [ [ [ ..X.    ",
"                                        X 3 : t ' ' ' ' t ; : : : : : : : : : : : : : : ; G e 4 ` ` ` ` ` ` ` ` ` ` ` ` X .     ",
"                                        X 3 ; u t t t t t t t t t t t t t t t t t t t t u o.O.X                                 ",
"                                        X O +.g g g g g g g g g g g g g g g g g g g g g @.K J .                                 ",
"                                          S 5 5 5 5 5 5 5 5 5 5 5 5 5 5 5 5 5 5 5 5 5 5 5 5 S                                   ",
"                                            . . . . . . . . . . . . . . . . . . . . . . . .                                     ",
"  X 4 X X X X , X                                                                                                               ",
"  W q 8 8 8 8 7 3 U                                                                                                             ",
"S #.t : : : : t z c .                                                                                                           ",
"S #.u : : : : t z c .                                                                                                           ",
"S #.t : : : : t z @ 4 X X X X X X X X X X .                                                                                     ",
"S #.t : : : : ; $ 9 $.%.%.%.%.%.%.%.%.%.f M S                                                                                   ",
"S #.t : : : : : : t t t t t t t t t t t n &.S                                                                                   ",
"S #.t : : : : : : : : : : : : : : : : : t H S                                                                                   ",
"S #.t : : : : : : : : : : : : : : : : : t H S                                                                                   ",
"X C u : : t *.t t t t t t t t t t t t t b D F                                                                                   ",
"| ~ ' : P =.{ y y y y y y y y y y y y y p -.S                                                                                   ",
"; ; ; ; & Y 4 . . . . . . . . . . . . . .                                                                                       ",
"P P P - G Y X                                                                                                                   ",
" . . .1 W 5 .                                                                                                                   ",
"X X X X X                                                                                                                       ",
"                                                                                                                                ",
"                                                                                                                                ",
"                                                                                                                                ",
"                                                                      . 5 d A Z Z Z Z Z Z Z Z A ;.                              ",
"                                                                      . o :.b t t t t t t t t b >..                             ",
"                                                                      . o / u ; ; ; ; ; ; ; ; u ,..                             ",
"                                                                      . X.^ - % % % % % % % % - V <.                            ",
"                                                                        S O.W O O O O O O O O W L                               ",
"                                                                          X X X X X X X X X X X .                               ",
"                                                                                                                                ",
"                                                                                                                                "
};
